<svg width="220" height="199" viewBox="0 0 220 199" fill="none" xmlns="http://www.w3.org/2000/svg">
<path d="M219.781 88H40.7812V179H219.781V88Z" fill="#2D2D2D"/>
<path d="M199.781 128H60.7812C49.7356 128 40.7812 136.954 40.7812 148V179C40.7812 190.046 49.7356 199 60.7812 199H199.781C210.827 199 219.781 190.046 219.781 179V148C219.781 136.954 210.827 128 199.781 128Z" fill="#2D2D2D"/>
<path d="M130.281 179C179.711 179 219.781 138.929 219.781 89.5C219.781 40.0705 179.711 0 130.281 0C80.8518 0 40.7812 40.0705 40.7812 89.5C40.7812 138.929 80.8518 179 130.281 179Z" fill="#2D2D2D"/>
<path d="M93.146 80.8335C106.893 80.8335 118.038 69.6889 118.038 55.9414C118.038 42.1939 106.893 31.0493 93.146 31.0493C79.3985 31.0493 68.2539 42.1939 68.2539 55.9414C68.2539 69.6889 79.3985 80.8335 93.146 80.8335Z" fill="white"/>
<path d="M93.154 68.3947C100.027 68.3947 105.599 62.8228 105.599 55.9494C105.599 49.0761 100.027 43.5042 93.154 43.5042C86.2807 43.5042 80.7087 49.0761 80.7087 55.9494C80.7087 62.8228 86.2807 68.3947 93.154 68.3947Z" fill="#231F20"/>
<path d="M168.939 80.8335C182.686 80.8335 193.831 69.6889 193.831 55.9414C193.831 42.1939 182.686 31.0493 168.939 31.0493C155.191 31.0493 144.047 42.1939 144.047 55.9414C144.047 69.6889 155.191 80.8335 168.939 80.8335Z" fill="white"/>
<path d="M168.947 68.3947C175.82 68.3947 181.392 62.8228 181.392 55.9494C181.392 49.0761 175.82 43.5042 168.947 43.5042C162.074 43.5042 156.502 49.0761 156.502 55.9494C156.502 62.8228 162.074 68.3947 168.947 68.3947Z" fill="#231F20"/>
<path d="M131.035 74.0776C109.349 74.0776 91.7676 90.3061 91.7676 110.324L131.036 177.75V74.0776H131.035Z" fill="#C7EAFB"/>
<path d="M170.301 110.324H170.299C170.299 90.3061 152.719 74.0776 131.033 74.0776V177.75L170.302 110.324H170.301Z" fill="#6E00FF"/>
<g clip-path="url(#clip0_1_1588)">
<path d="M6.45933 71.3789H27.5395V148.03C27.5395 153.81 22.8171 158.51 16.9963 158.51C11.1817 158.51 6.45312 153.816 6.45312 148.03V71.3789H6.45933Z" fill="#D1D3D4"/>
<path d="M31.524 68.9121H2.476C1.10854 68.9121 0 70.014 0 71.3732C0 72.7324 1.10854 73.8343 2.476 73.8343H31.524C32.8915 73.8343 34 72.7324 34 71.3732C34 70.014 32.8915 68.9121 31.524 68.9121Z" fill="#D1D3D4"/>
<path d="M8.72461 102.491H25.2747V147.728C25.2747 152.268 21.57 155.95 17.0028 155.95C12.4355 155.95 8.73081 152.268 8.73081 147.728V102.491H8.72461Z" fill="#00C800"/>
<path d="M10.4263 66.1299C12.6162 66.1299 14.3916 64.3653 14.3916 62.1885C14.3916 60.0117 12.6162 58.2471 10.4263 58.2471C8.23627 58.2471 6.46094 60.0117 6.46094 62.1885C6.46094 64.3653 8.23627 66.1299 10.4263 66.1299Z" fill="#00C800"/>
<path d="M23.1333 64.1874C26.5229 64.1874 29.2706 61.4562 29.2706 58.0871C29.2706 54.718 26.5229 51.9868 23.1333 51.9868C19.7438 51.9868 16.9961 54.718 16.9961 58.0871C16.9961 61.4562 19.7438 64.1874 23.1333 64.1874Z" fill="#00C800"/>
<path d="M10.5239 101.603C11.0894 101.603 11.5478 101.147 11.5478 100.585C11.5478 100.023 11.0894 99.5674 10.5239 99.5674C9.95842 99.5674 9.5 100.023 9.5 100.585C9.5 101.147 9.95842 101.603 10.5239 101.603Z" fill="#00C800"/>
<path d="M15.5203 99.5611C16.7267 99.5611 17.7046 98.589 17.7046 97.3899C17.7046 96.1908 16.7267 95.2188 15.5203 95.2188C14.3139 95.2188 13.3359 96.1908 13.3359 97.3899C13.3359 98.589 14.3139 99.5611 15.5203 99.5611Z" fill="#00C800"/>
<path d="M13.0821 90.4571C14.2233 90.4571 15.1485 89.5375 15.1485 88.4031C15.1485 87.2687 14.2233 86.3491 13.0821 86.3491C11.9408 86.3491 11.0156 87.2687 11.0156 88.4031C11.0156 89.5375 11.9408 90.4571 13.0821 90.4571Z" fill="#00C800"/>
<path d="M20.5156 82.0935C21.8694 82.0935 22.9668 81.0027 22.9668 79.6571C22.9668 78.3115 21.8694 77.2207 20.5156 77.2207C19.1619 77.2207 18.0645 78.3115 18.0645 79.6571C18.0645 81.0027 19.1619 82.0935 20.5156 82.0935Z" fill="#00C800"/>
<path d="M12.8758 53.7445C15.1651 53.7445 17.021 51.8998 17.021 49.6242C17.021 47.3486 15.1651 45.5039 12.8758 45.5039C10.5864 45.5039 8.73047 47.3486 8.73047 49.6242C8.73047 51.8998 10.5864 53.7445 12.8758 53.7445Z" fill="#00C800"/>
<path d="M23.7856 84.6717C24.2345 84.6717 24.5985 84.3099 24.5985 83.8637C24.5985 83.4174 24.2345 83.0557 23.7856 83.0557C23.3366 83.0557 22.9727 83.4174 22.9727 83.8637C22.9727 84.3099 23.3366 84.6717 23.7856 84.6717Z" fill="#00C800"/>
<path d="M21.4465 101.054C21.9605 101.054 22.3773 100.64 22.3773 100.129C22.3773 99.6178 21.9605 99.2036 21.4465 99.2036C20.9324 99.2036 20.5156 99.6178 20.5156 100.129C20.5156 100.64 20.9324 101.054 21.4465 101.054Z" fill="#00C800"/>
</g>
<path d="M201.635 44.5505H194.772C194.772 44.5505 194.522 44.5505 194.421 44.5505C189.963 34.807 180.145 27.9764 168.774 27.9764C153.947 27.9764 141.775 39.528 140.673 54.0931C138.97 53.7415 121.554 53.7917 119.851 54.1935C118.849 39.528 106.627 27.9263 91.7496 27.9263C80.3787 27.9263 70.5608 34.7064 66.1026 44.45H50.7227C49.3201 44.45 48.168 45.6052 48.168 47.0114C48.168 48.4177 49.3201 49.5729 50.7227 49.5729H64.3493C63.8484 51.6824 63.598 53.8922 63.598 56.1523C63.598 71.7219 76.2211 84.3784 91.7496 84.3784C106.076 84.3784 117.948 73.5801 119.701 59.7182C121.354 58.7639 139.07 58.6635 140.773 59.4169C142.426 73.4295 154.348 84.3784 168.774 84.3784C184.303 84.3784 196.926 71.7219 196.926 56.1523C196.926 53.8922 196.675 51.6824 196.175 49.5729H210.453C211.855 49.5729 213.007 48.4177 213.007 47.0114C213.007 45.6052 211.855 44.45 210.453 44.45L201.635 44.5505ZM91.7496 79.4062C79.0263 79.4062 68.7073 69.06 68.7073 56.303C68.7073 43.546 79.0263 33.1998 91.7496 33.1998C104.473 33.1998 114.792 43.546 114.792 56.303C114.792 69.06 104.473 79.4062 91.7496 79.4062ZM168.724 79.4062C156.001 79.4062 145.682 69.06 145.682 56.303C145.682 43.546 156.001 33.1998 168.724 33.1998C181.448 33.1998 191.767 43.546 191.767 56.303C191.767 69.06 181.448 79.4062 168.724 79.4062Z" fill="#00C800"/>
<path d="M117.649 55.9415C117.649 69.689 106.505 80.8335 92.7573 80.8335C79.0098 80.8335 67.8652 69.689 67.8652 55.9415C67.8652 42.194 79.0098 31.0494 92.7573 31.0494C106.505 31.0494 117.649 42.194 117.649 55.9415Z" fill="#D4D4D4" fill-opacity="0.25"/>
<ellipse cx="168.947" cy="55.4968" rx="24.4474" ry="24.4474" fill="#D4D4D4" fill-opacity="0.25"/>
<defs>
<clipPath id="clip0_1_1588">
<rect width="34" height="113" fill="white" transform="translate(0 45.5039)"/>
</clipPath>
</defs>
</svg>
