<svg width="523" height="304" viewBox="0 0 523 304" fill="none" xmlns="http://www.w3.org/2000/svg">
<path d="M192.65 179.522C201.821 213.226 181.935 247.982 148.232 257.154C114.528 266.325 79.7717 246.439 70.5996 212.736L192.651 179.523L192.65 179.522Z" fill="#231F20"/>
<path d="M70.5972 212.733C76.0998 232.954 96.9544 244.887 117.176 239.385L107.211 202.769L70.5958 212.734L70.5972 212.733Z" fill="#6E00FF"/>
<path d="M227.001 209.473L217.04 172.857L107.191 202.739L117.152 239.356L227.001 209.473Z" fill="#231F20"/>
<path d="M234.365 136.124C203.137 159.709 158.705 153.512 135.121 122.285C111.536 91.0574 117.732 46.6254 148.96 23.0408L234.365 136.124Z" fill="#231F20"/>
<path d="M148.956 23.0424C130.221 37.1934 126.502 63.8522 140.653 82.5877L174.578 56.9654L148.955 23.041L148.956 23.0424Z" fill="#6E00FF"/>
<path d="M217.526 184.345L251.451 158.726L174.594 56.9472L140.668 82.566L217.526 184.345Z" fill="#231F20"/>
<path d="M190.16 152.787C195.551 188.31 170.815 222.364 134.909 228.845C99.0057 235.326 65.5288 211.783 60.1388 176.257L190.159 152.785L190.16 152.787Z" fill="#231F20"/>
<path d="M260.918 181.211C257.669 159.798 237.492 145.607 215.851 149.514L221.734 188.284L260.918 181.211Z" fill="#231F20"/>
<path d="M60.1271 175.532C63.3762 196.945 83.5529 211.136 105.194 207.229L99.3117 168.459L60.1271 175.532Z" fill="#6E00FF"/>
<path d="M222.101 186.914L216.23 149.254L98.9766 169.875L104.847 207.534L222.101 186.914Z" fill="#231F20"/>
<path d="M198.772 138.101C191.525 176.467 154.552 202.701 116.191 196.695C77.8305 190.69 52.6078 154.719 59.8545 116.353L198.772 138.101Z" fill="#231F20"/>
<path d="M260.632 192.525C264.991 169.444 249.815 147.804 226.733 144.19L218.838 185.983L260.631 192.524L260.632 192.525Z" fill="#231F20"/>
<path d="M59.789 115.615C55.4293 138.696 70.6055 160.336 93.6878 163.949L101.582 122.157L59.79 115.616L59.789 115.615Z" fill="#6E00FF"/>
<path d="M218.494 185.71L226.327 142.652L101.929 122.432L94.0961 165.491L218.494 185.71Z" fill="#231F20"/>
<path d="M211.506 139.968C187.385 171.653 142.606 178.691 111.49 155.686C80.3729 132.681 74.7016 88.3477 98.8232 56.6626L211.506 139.968Z" fill="#231F20"/>
<path d="M242.248 217.528C256.7 198.541 253.303 171.976 234.659 158.191L208.492 192.568L242.248 217.528Z" fill="#231F20"/>
<path d="M98.5061 56.2559C84.0543 75.2422 87.4517 101.808 106.095 115.593L132.262 81.2151L98.5061 56.2559Z" fill="#6E00FF"/>
<path d="M207.955 192.193L234.138 157.405L132.792 81.6442L106.609 116.432L207.955 192.193Z" fill="#231F20"/>
<path d="M330.328 179.52C321.157 213.224 341.044 247.98 374.747 257.152C408.451 266.323 443.207 246.437 452.379 212.734L330.327 179.521L330.328 179.52Z" fill="#231F20"/>
<path d="M452.382 212.733C446.879 232.954 426.024 244.887 405.803 239.385L415.768 202.769L452.383 212.734L452.382 212.733Z" fill="#6E00FF"/>
<path d="M295.978 209.474L305.939 172.857L415.788 202.739L405.827 239.356L295.978 209.474Z" fill="#231F20"/>
<path d="M288.614 136.124C319.842 159.709 364.274 153.512 387.858 122.285C411.443 91.0574 405.246 46.6254 374.019 23.0408L288.614 136.124Z" fill="#231F20"/>
<path d="M374.022 23.0415C392.758 37.1924 396.476 63.8512 382.325 82.5867L348.401 56.9644L374.023 23.04L374.022 23.0415Z" fill="#6E00FF"/>
<path d="M305.453 184.345L271.527 158.726L348.385 56.9472L382.31 82.566L305.453 184.345Z" fill="#231F20"/>
<path d="M332.818 152.786C327.428 188.309 352.163 222.363 388.069 228.844C423.973 235.325 457.45 211.782 462.84 176.256L332.819 152.784L332.818 152.786Z" fill="#231F20"/>
<path d="M262.06 181.21C265.31 159.797 285.486 145.606 307.128 149.513L301.245 188.283L262.06 181.21Z" fill="#231F20"/>
<path d="M462.851 175.531C459.602 196.944 439.426 211.135 417.784 207.228L423.667 168.458L462.851 175.531Z" fill="#6E00FF"/>
<path d="M300.878 186.913L306.749 149.253L424.002 169.874L418.131 207.533L300.878 186.913Z" fill="#231F20"/>
<path d="M324.207 138.1C331.453 176.467 368.426 202.7 406.787 196.695C445.148 190.689 470.371 154.719 463.124 116.352L324.207 138.1Z" fill="#231F20"/>
<path d="M262.345 192.525C257.985 169.444 273.162 147.804 296.244 144.191L304.139 185.983L262.346 192.524L262.345 192.525Z" fill="#231F20"/>
<path d="M463.188 115.613C467.548 138.694 452.371 160.334 429.289 163.948L421.394 122.156L463.187 115.614L463.188 115.613Z" fill="#6E00FF"/>
<path d="M304.485 185.708L296.652 142.65L421.049 122.431L428.882 165.489L304.485 185.708Z" fill="#231F20"/>
<path d="M311.474 139.968C335.596 171.653 380.374 178.691 411.491 155.686C442.608 132.681 448.279 88.3477 424.157 56.6626L311.474 139.968Z" fill="#231F20"/>
<path d="M280.73 217.528C266.278 198.541 269.676 171.976 288.319 158.191L314.486 192.568L280.73 217.528Z" fill="#231F20"/>
<path d="M424.471 56.2558C438.923 75.2422 435.525 101.808 416.882 115.593L390.715 81.2151L424.471 56.2558Z" fill="#6E00FF"/>
<path d="M315.024 192.193L288.841 157.405L390.187 81.6442L416.37 116.432L315.024 192.193Z" fill="#231F20"/>
<path d="M332.572 127.035H179.019V205.098H332.572V127.035Z" fill="#2D2D2D"/>
<path d="M312.572 161.348H199.019C187.973 161.348 179.019 170.302 179.019 181.348V202.255C179.019 213.3 187.973 222.255 199.019 222.255H312.572C323.618 222.255 332.572 213.3 332.572 202.255V181.348C332.572 170.302 323.618 161.348 312.572 161.348Z" fill="#2D2D2D"/>
<path d="M255.797 205.098C298.2 205.098 332.574 170.724 332.574 128.321C332.574 85.9186 298.2 51.5446 255.797 51.5446C213.395 51.5446 179.021 85.9186 179.021 128.321C179.021 170.724 213.395 205.098 255.797 205.098Z" fill="#2D2D2D"/>
<path d="M223.941 120.887C235.734 120.887 245.295 111.327 245.295 99.5341C245.295 87.7409 235.734 78.1807 223.941 78.1807C212.148 78.1807 202.588 87.7409 202.588 99.5341C202.588 111.327 212.148 120.887 223.941 120.887Z" fill="white"/>
<path d="M288.958 120.887C300.751 120.887 310.312 111.327 310.312 99.5341C310.312 87.7409 300.751 78.1807 288.958 78.1807C277.165 78.1807 267.605 87.7409 267.605 99.5341C267.605 111.327 277.165 120.887 288.958 120.887Z" fill="white"/>
<path d="M223.942 101.988C226.735 101.988 229 99.7232 229 96.9297C229 94.1363 226.735 91.8717 223.942 91.8717C221.148 91.8717 218.884 94.1363 218.884 96.9297C218.884 99.7232 221.148 101.988 223.942 101.988Z" fill="#231F20"/>
<path d="M288.071 110.217C290.865 110.217 293.129 107.953 293.129 105.159C293.129 102.366 290.865 100.101 288.071 100.101C285.278 100.101 283.013 102.366 283.013 105.159C283.013 107.953 285.278 110.217 288.071 110.217Z" fill="#231F20"/>
<path fill-rule="evenodd" clip-rule="evenodd" d="M278.796 47.5398C285.094 45.7539 292.151 46.0741 298.844 48.9323C305.673 51.8487 310.955 56.9093 314.162 62.9186C314.322 54.8999 309.334 46.961 301.156 43.438C293.026 39.9359 284.153 41.8351 278.796 47.5398Z" fill="#BDBDBD"/>
<path fill-rule="evenodd" clip-rule="evenodd" d="M233.036 46.0541C226.531 44.6508 219.397 45.4602 212.842 48.8459C206.67 52.0341 201.999 56.9968 199.187 62.7237C198.981 55.1876 203.257 47.6324 210.675 43.7857C218.376 39.7928 227.219 40.9592 233.036 46.0541Z" fill="#BDBDBD"/>
<path d="M253.308 141.315C236.903 141.315 223.604 147.927 223.604 156.083L253.309 183.554V141.315H253.308Z" fill="#635F5F"/>
<path d="M283.008 156.083H283.007C283.007 147.927 269.709 141.315 253.304 141.315V183.554L283.009 156.083H283.008Z" fill="#635F5F"/>
<mask id="mask0_1_1134" style="mask-type:alpha" maskUnits="userSpaceOnUse" x="223" y="99" width="62" height="31">
<path d="M223.658 129.695H284.735V99.5332H223.658V129.695Z" fill="#635F5F"/>
</mask>
<g mask="url(#mask0_1_1134)">
<path d="M253.309 144.149C236.905 144.149 223.606 137.537 223.606 129.381L253.31 101.91V144.149H253.309Z" fill="#635F5F"/>
<path d="M283.009 129.381H283.008C283.008 137.537 269.71 144.149 253.306 144.149V101.91L283.011 129.381H283.009Z" fill="#635F5F"/>
</g>
<rect x="217.126" y="126.451" width="74.1378" height="32.3204" rx="16.1602" fill="#484545"/>
<mask id="mask1_1_1134" style="mask-type:alpha" maskUnits="userSpaceOnUse" x="216" y="126" width="76" height="33">
<rect x="216.991" y="126.451" width="74.1378" height="32.3204" rx="16.1602" fill="#B3B3B3"/>
</mask>
<g mask="url(#mask1_1_1134)">
<ellipse cx="253.926" cy="157.706" rx="16.5154" ry="7.09194" fill="#353131"/>
</g>
<path d="M243.456 106.604C243.456 118.397 233.896 127.957 222.102 127.957C210.309 127.957 200.749 118.397 200.749 106.604C200.749 94.811 210.309 85.2507 222.102 85.2507C233.896 85.2507 243.456 94.811 243.456 106.604Z" fill="#D4D4D4" fill-opacity="0.25"/>
<path d="M306.09 94.2602C306.09 106.053 296.529 115.614 284.736 115.614C272.943 115.614 263.383 106.053 263.383 94.2602C263.383 82.4671 272.943 72.9069 284.736 72.9069C296.529 72.9069 306.09 82.4671 306.09 94.2602Z" fill="#D4D4D4" fill-opacity="0.25"/>
<path d="M311.624 79.1776L305.833 80.236C305.833 80.236 305.622 80.2746 305.537 80.2901C300.272 72.7555 290.934 68.5057 281.338 70.2595C268.826 72.5463 260.336 84.1717 261.653 96.6326C260.161 96.5986 245.472 99.327 244.097 99.9287C240.99 87.7076 228.887 79.8025 216.332 82.0971C206.737 83.8508 199.498 91.0866 197.238 99.9964L184.26 102.369C183.076 102.585 182.282 103.737 182.499 104.924C182.716 106.111 183.866 106.908 185.05 106.692L196.549 104.59C196.452 106.447 196.581 108.351 196.93 110.258C199.331 123.396 211.935 132.13 225.039 129.735C237.128 127.525 245.481 116.582 244.823 104.614C246.07 103.554 261.005 100.737 262.558 101.11C266.114 112.679 277.863 120.08 290.037 117.855C303.141 115.46 311.841 102.833 309.44 89.6941C309.091 87.7869 308.539 85.9607 307.791 84.2579L319.84 82.0558C321.023 81.8394 321.817 80.6869 321.6 79.5002C321.384 78.3135 320.233 77.5164 319.049 77.7327L311.624 79.1776ZM224.272 125.539C213.535 127.501 203.232 120.362 201.264 109.597C199.297 98.8319 206.409 88.5095 217.146 86.5472C227.882 84.5848 238.186 91.7241 240.153 102.489C242.121 113.254 235.009 123.577 224.272 125.539ZM289.228 113.667C278.491 115.629 268.188 108.49 266.22 97.7248C264.253 86.9597 271.365 76.6374 282.102 74.675C292.838 72.7126 303.142 79.8519 305.109 90.617C307.077 101.382 299.965 111.704 289.228 113.667Z" fill="#00C800"/>
<path d="M335.477 41.0344L325.996 43.5511L323.821 39.7849L321.229 39.804L328.372 20.61L327.868 35.9711L356.019 23.8546L329.659 39.0737L335.477 41.0344Z" fill="#FFCC01"/>
<path d="M174.662 36.7748L184.852 40.8739L187.785 36.9878L190.663 37.3653L185.364 15.0569L183.813 32.1942L154.197 14.8635L181.396 35.3956L174.662 36.7748Z" fill="#FFCC01"/>
</svg>
