<svg width="604" height="350" viewBox="0 0 604 350" fill="none" xmlns="http://www.w3.org/2000/svg">
<path d="M221.862 209.565C232.553 248.855 209.371 289.371 170.083 300.063C130.794 310.753 90.2775 287.572 79.5853 248.284L221.863 209.567L221.862 209.565Z" fill="#231F20"/>
<path d="M79.5832 248.282C85.9977 271.854 110.308 285.765 133.881 279.35L122.265 236.667L79.5815 248.283L79.5832 248.282Z" fill="#6E00FF"/>
<path d="M261.905 244.482L250.293 201.797L122.24 236.632L133.852 279.316L261.905 244.482Z" fill="#231F20"/>
<path d="M270.489 158.978C234.087 186.471 182.291 179.247 154.798 142.845C127.305 106.442 134.529 54.6472 170.931 27.1541L270.489 158.978Z" fill="#231F20"/>
<path d="M170.929 27.156C149.088 43.652 144.753 74.7288 161.249 96.5691L200.796 66.7007L170.927 27.1543L170.929 27.156Z" fill="#6E00FF"/>
<path d="M250.86 215.188L290.408 185.324L200.814 66.6786L161.266 96.5429L250.86 215.188Z" fill="#231F20"/>
<path d="M218.423 179.283C225.356 221.008 197.152 260.456 155.423 267.389C113.698 274.322 74.2501 246.118 67.3174 204.389L218.421 179.281L218.423 179.283Z" fill="#231F20"/>
<path d="M301.506 212.058C297.346 187.022 273.679 170.099 248.642 174.259L256.174 219.59L301.506 212.058Z" fill="#231F20"/>
<path d="M67.3175 204.393C71.4776 229.429 95.1448 246.352 120.181 242.192L112.649 196.861L67.3175 204.393Z" fill="#6E00FF"/>
<path d="M256.194 219.615L248.658 174.283L112.666 196.89L120.201 242.221L256.194 219.615Z" fill="#231F20"/>
<path d="M228.731 162.599C221.005 207.319 178.489 237.308 133.769 229.582C89.0489 221.856 59.0598 179.34 66.7856 134.62L228.731 162.599Z" fill="#231F20"/>
<path d="M301.31 225.174C305.945 198.342 287.952 172.833 261.119 168.196L252.726 216.779L301.309 225.172L301.31 225.174Z" fill="#231F20"/>
<path d="M66.7857 134.621C62.1508 161.452 80.1441 186.962 106.977 191.598L115.37 143.015L66.7869 134.622L66.7857 134.621Z" fill="#6E00FF"/>
<path d="M252.728 216.78L261.121 168.197L115.371 143.016L106.977 191.599L252.728 216.78Z" fill="#231F20"/>
<path d="M243.804 164.843C216.423 201.328 164.65 208.71 128.164 181.328C91.6784 153.947 84.297 102.174 111.678 65.6886L243.804 164.843Z" fill="#231F20"/>
<path d="M280.121 254.058C296.55 232.166 292.121 201.101 270.229 184.673L240.483 224.311L280.121 254.058Z" fill="#231F20"/>
<path d="M111.676 65.6878C95.2471 87.5798 99.6755 118.644 121.567 135.073L151.314 95.4347L111.676 65.6878Z" fill="#6E00FF"/>
<path d="M240.48 224.338L270.223 184.699L151.303 95.4697L121.56 135.109L240.48 224.338Z" fill="#231F20"/>
<path d="M382.357 209.565C371.666 248.854 394.848 289.37 434.136 300.063C473.425 310.753 513.941 287.571 524.633 248.283L382.355 209.567L382.357 209.565Z" fill="#231F20"/>
<path d="M524.636 248.281C518.221 271.854 493.911 285.764 470.338 279.35L481.954 236.667L524.637 248.283L524.636 248.281Z" fill="#6E00FF"/>
<path d="M342.314 244.482L353.926 201.797L481.979 236.632L470.367 279.316L342.314 244.482Z" fill="#231F20"/>
<path d="M333.73 158.977C370.132 186.47 421.927 179.247 449.42 142.844C476.913 106.442 469.69 54.6467 433.288 27.1537L333.73 158.977Z" fill="#231F20"/>
<path d="M433.29 27.1556C455.13 43.6516 459.465 74.7283 442.969 96.5686L403.423 66.7002L433.291 27.1539L433.29 27.1556Z" fill="#6E00FF"/>
<path d="M353.358 215.188L313.811 185.324L403.405 66.6786L442.953 96.5429L353.358 215.188Z" fill="#231F20"/>
<path d="M385.796 179.283C378.863 221.008 407.067 260.456 448.795 267.389C490.521 274.322 529.969 246.118 536.901 204.389L385.797 179.281L385.796 179.283Z" fill="#231F20"/>
<path d="M302.713 212.058C306.873 187.022 330.54 170.099 355.576 174.259L348.044 219.59L302.713 212.058Z" fill="#231F20"/>
<path d="M536.901 204.393C532.741 229.429 509.074 246.352 484.038 242.192L491.57 196.861L536.901 204.393Z" fill="#6E00FF"/>
<path d="M348.025 219.615L355.561 174.283L491.553 196.89L484.018 242.221L348.025 219.615Z" fill="#231F20"/>
<path d="M375.488 162.598C383.214 207.318 425.73 237.307 470.45 229.581C515.17 221.856 545.159 179.339 537.433 134.619L375.488 162.598Z" fill="#231F20"/>
<path d="M302.909 225.173C298.274 198.342 316.267 172.832 343.1 168.196L351.493 216.779L302.91 225.172L302.909 225.173Z" fill="#231F20"/>
<path d="M537.433 134.62C542.068 161.452 524.075 186.961 497.242 191.598L488.849 143.015L537.432 134.622L537.433 134.62Z" fill="#6E00FF"/>
<path d="M351.491 216.78L343.098 168.196L488.848 143.015L497.242 191.599L351.491 216.78Z" fill="#231F20"/>
<path d="M360.415 164.842C387.796 201.328 439.569 208.709 476.055 181.328C512.54 153.947 519.922 102.174 492.541 65.6882L360.415 164.842Z" fill="#231F20"/>
<path d="M324.098 254.057C307.669 232.165 312.097 201.101 333.989 184.672L363.736 224.311L324.098 254.057Z" fill="#231F20"/>
<path d="M492.543 65.6873C508.972 87.5793 504.543 118.644 482.651 135.073L452.904 95.4342L492.543 65.6873Z" fill="#6E00FF"/>
<path d="M363.739 224.338L333.996 184.698L452.916 95.4692L482.659 135.109L363.739 224.338Z" fill="#231F20"/>
<path d="M384.973 148.382H205.973V239.382H384.973V148.382Z" fill="#2D2D2D"/>
<path d="M364.973 188.382H225.973C214.927 188.382 205.973 197.337 205.973 208.382V239.382C205.973 250.428 214.927 259.382 225.973 259.382H364.973C376.019 259.382 384.973 250.428 384.973 239.382V208.382C384.973 197.337 376.019 188.382 364.973 188.382Z" fill="#2D2D2D"/>
<path d="M295.473 239.382C344.902 239.382 384.973 199.312 384.973 149.882C384.973 100.453 344.902 60.3824 295.473 60.3824C246.043 60.3824 205.973 100.453 205.973 149.882C205.973 199.312 246.043 239.382 295.473 239.382Z" fill="#2D2D2D"/>
<path d="M258.338 141.216C272.085 141.216 283.23 130.071 283.23 116.324C283.23 102.576 272.085 91.4317 258.338 91.4317C244.59 91.4317 233.446 102.576 233.446 116.324C233.446 130.071 244.59 141.216 258.338 141.216Z" fill="white"/>
<path d="M334.131 141.216C347.878 141.216 359.023 130.071 359.023 116.324C359.023 102.576 347.878 91.4317 334.131 91.4317C320.383 91.4317 309.239 102.576 309.239 116.324C309.239 130.071 320.383 141.216 334.131 141.216Z" fill="white"/>
<path d="M258.338 119.183C261.594 119.183 264.234 116.543 264.234 113.287C264.234 110.031 261.594 107.391 258.338 107.391C255.081 107.391 252.442 110.031 252.442 113.287C252.442 116.543 255.081 119.183 258.338 119.183Z" fill="#231F20"/>
<path d="M333.094 128.777C336.35 128.777 338.99 126.138 338.99 122.881C338.99 119.625 336.35 116.985 333.094 116.985C329.837 116.985 327.198 119.625 327.198 122.881C327.198 126.138 329.837 128.777 333.094 128.777Z" fill="#231F20"/>
<path fill-rule="evenodd" clip-rule="evenodd" d="M323.53 55.5288C330.767 53.34 338.777 53.5467 346.306 56.668C353.827 59.786 359.63 65.299 363.196 71.9566C363.294 62.7946 357.905 54.0636 348.923 50.3398C339.935 46.6139 329.942 48.976 323.53 55.5288Z" fill="#BDBDBD"/>
<path fill-rule="evenodd" clip-rule="evenodd" d="M267.824 53.8493C260.33 52.0945 252.2 52.8688 244.797 56.6184C237.982 60.0695 232.836 65.5077 229.705 71.8714C229.56 63.293 234.216 54.9708 242.384 50.8341C250.95 46.4958 260.94 47.9958 267.824 53.8493Z" fill="#BDBDBD"/>
<path d="M292.573 165.03C273.45 165.03 257.948 172.738 257.948 182.245L292.575 214.268V165.03H292.573Z" fill="#635F5F"/>
<path d="M327.196 182.245H327.195C327.195 172.738 311.693 165.03 292.571 165.03V214.268L327.198 182.245H327.196Z" fill="#635F5F"/>
<mask id="mask0_1_1248" style="mask-type:alpha" maskUnits="userSpaceOnUse" x="258" y="116" width="72" height="36">
<path d="M258.01 151.484H329.209V116.324H258.01V151.484Z" fill="#635F5F"/>
</mask>
<g mask="url(#mask0_1_1248)">
<path d="M292.575 168.333C273.452 168.333 257.949 160.625 257.949 151.118L292.576 119.095V168.333H292.575Z" fill="#635F5F"/>
<path d="M327.198 151.118H327.197C327.197 160.625 311.695 168.333 292.573 168.333V119.095L327.2 151.118H327.198Z" fill="#635F5F"/>
</g>
<rect x="250.397" y="147.702" width="86.4238" height="37.6765" rx="18.8383" fill="#484545"/>
<mask id="mask1_1_1248" style="mask-type:alpha" maskUnits="userSpaceOnUse" x="250" y="147" width="87" height="39">
<rect x="250.239" y="147.702" width="86.4238" height="37.6765" rx="18.8383" fill="#B3B3B3"/>
</mask>
<g mask="url(#mask1_1_1248)">
<ellipse cx="293.294" cy="184.137" rx="19.2524" ry="8.26721" fill="#353131"/>
</g>
<path d="M281.087 124.565C281.087 138.312 269.942 149.457 256.195 149.457C242.448 149.457 231.303 138.312 231.303 124.565C231.303 110.817 242.448 99.6729 256.195 99.6729C269.942 99.6729 281.087 110.817 281.087 124.565Z" fill="#D4D4D4" fill-opacity="0.25"/>
<path d="M354.101 110.176C354.101 123.924 342.956 135.068 329.209 135.068C315.461 135.068 304.317 123.924 304.317 110.176C304.317 96.4288 315.461 85.2842 329.209 85.2842C342.956 85.2842 354.101 96.4288 354.101 110.176Z" fill="#D4D4D4" fill-opacity="0.25"/>
<path d="M360.553 92.594L353.802 93.8279C353.802 93.8279 353.556 93.8729 353.457 93.8909C347.32 85.1077 336.434 80.1537 325.248 82.1981C310.662 84.8639 300.765 98.4158 302.3 112.942C300.562 112.902 283.439 116.083 281.836 116.784C278.213 102.538 264.104 93.3225 249.469 95.9974C238.284 98.0418 229.845 106.477 227.211 116.863L212.082 119.628C210.702 119.88 209.776 121.224 210.029 122.607C210.282 123.991 211.623 124.92 213.003 124.668L226.408 122.218C226.294 124.383 226.445 126.602 226.851 128.825C229.651 144.141 244.344 154.321 259.619 151.53C273.712 148.954 283.449 136.197 282.681 122.246C284.136 121.01 301.545 117.726 303.356 118.161C307.501 131.648 321.197 140.275 335.389 137.681C350.664 134.889 360.806 120.169 358.007 104.853C357.6 102.63 356.957 100.501 356.085 98.5163L370.13 95.9492C371.51 95.697 372.435 94.3535 372.182 92.9701C371.93 91.5868 370.589 90.6575 369.209 90.9097L360.553 92.594ZM258.725 146.638C246.209 148.926 234.198 140.604 231.904 128.055C229.611 115.505 237.901 103.472 250.417 101.185C262.933 98.8973 274.944 107.22 277.238 119.769C279.532 132.318 271.241 144.351 258.725 146.638ZM334.445 132.799C321.929 135.086 309.919 126.764 307.625 114.215C305.331 101.666 313.622 89.6329 326.138 87.3453C338.654 85.0578 350.665 93.3801 352.959 105.929C355.252 118.478 346.961 130.511 334.445 132.799Z" fill="#00C800"/>
<path d="M388.358 48.1294L377.305 51.0632L374.77 46.6728L371.748 46.6951L380.075 24.3203L379.487 42.227L412.304 28.1026L381.576 45.8438L388.358 48.1294Z" fill="#FFCC01"/>
<path d="M200.893 43.1643L212.771 47.9426L216.191 43.4125L219.546 43.8526L213.368 17.8472L211.56 37.8246L177.037 17.6218L208.743 41.5565L200.893 43.1643Z" fill="#FFCC01"/>
</svg>
