<svg width="214" height="199" viewBox="0 0 214 199" fill="none" xmlns="http://www.w3.org/2000/svg">
<path d="M213.117 88H34.1167V179H213.117V88Z" fill="#2D2D2D"/>
<path d="M193.117 128H54.1167C43.071 128 34.1167 136.954 34.1167 148V179C34.1167 190.046 43.071 199 54.1167 199H193.117C204.162 199 213.117 190.046 213.117 179V148C213.117 136.954 204.162 128 193.117 128Z" fill="#2D2D2D"/>
<path d="M123.617 179C173.046 179 213.117 138.929 213.117 89.5C213.117 40.0705 173.046 0 123.617 0C74.1872 0 34.1167 40.0705 34.1167 89.5C34.1167 138.929 74.1872 179 123.617 179Z" fill="#2D2D2D"/>
<path d="M86.4814 80.8335C100.229 80.8335 111.373 69.6889 111.373 55.9414C111.373 42.1939 100.229 31.0493 86.4814 31.0493C72.7339 31.0493 61.5894 42.1939 61.5894 55.9414C61.5894 69.6889 72.7339 80.8335 86.4814 80.8335Z" fill="white"/>
<path d="M86.4822 63.4082C90.6061 63.4082 93.9493 60.0651 93.9493 55.9412C93.9493 51.8172 90.6061 48.4741 86.4822 48.4741C82.3583 48.4741 79.0151 51.8172 79.0151 55.9412C79.0151 60.0651 82.3583 63.4082 86.4822 63.4082Z" fill="#231F20"/>
<path d="M162.274 80.8335C176.022 80.8335 187.166 69.6889 187.166 55.9414C187.166 42.1939 176.022 31.0493 162.274 31.0493C148.527 31.0493 137.382 42.1939 137.382 55.9414C137.382 69.6889 148.527 80.8335 162.274 80.8335Z" fill="white"/>
<path d="M161.554 63.4087C165.678 63.4087 169.022 60.0656 169.022 55.9417C169.022 51.8177 165.678 48.4746 161.554 48.4746C157.431 48.4746 154.087 51.8177 154.087 55.9417C154.087 60.0656 157.431 63.4087 161.554 63.4087Z" fill="#231F20"/>
<path d="M97.1911 101.149C91.9056 122.181 103.36 143.188 122.774 148.067L197.737 126.415L97.1915 101.148L97.1911 101.149Z" fill="#C7EAFB"/>
<path d="M126.997 73.6359L126.997 73.6374C107.126 76.0525 93.1367 95.4617 95.7532 116.99L198.668 104.481L126.997 73.6344L126.997 73.6359Z" fill="#6E00FF"/>
<rect x="145.062" y="14.332" width="55.0795" height="5.46365" rx="2.73182" transform="rotate(10.1297 145.062 14.332)" fill="#D4D4D4"/>
<rect width="55.0794" height="5.46365" rx="2.73182" transform="matrix(-0.790619 0.612308 0.612308 0.790619 93.5854 11.9692)" fill="#D4D4D4"/>
<path d="M86.0654 80.9199C99.8129 80.9199 110.957 69.7753 110.957 56.0278C110.957 42.2803 99.8129 31.1357 86.0654 31.1357C72.3179 31.1357 61.1733 42.2803 61.1733 56.0278C61.1733 69.7753 72.3179 80.9199 86.0654 80.9199Z" fill="white"/>
<path d="M86.0648 64.1286C90.3875 64.1286 93.8918 60.6244 93.8918 56.3016C93.8918 51.9789 90.3875 48.4746 86.0648 48.4746C81.7421 48.4746 78.2378 51.9789 78.2378 56.3016C78.2378 60.6244 81.7421 64.1286 86.0648 64.1286Z" fill="#231F20"/>
<path d="M195.001 44.3396H188.139C188.139 44.3396 187.888 44.3396 187.788 44.3396C183.33 34.5961 173.512 27.7655 162.141 27.7655C147.314 27.7655 135.142 39.3171 134.04 53.8822C132.337 53.5306 114.921 53.5808 113.218 53.9826C112.216 39.3171 99.9936 27.7153 85.1163 27.7153C73.7454 27.7153 63.9275 34.4955 59.4693 44.239H44.0894C42.6868 44.239 41.5347 45.3942 41.5347 46.8005C41.5347 48.2068 42.6868 49.362 44.0894 49.362H57.716C57.2151 51.4714 56.9647 53.6813 56.9647 55.9414C56.9647 71.5109 69.5878 84.1674 85.1163 84.1674C99.4426 84.1674 111.314 73.3692 113.067 59.5073C114.721 58.553 132.437 58.4526 134.14 59.2059C135.793 73.2185 147.715 84.1674 162.141 84.1674C177.67 84.1674 190.293 71.5109 190.293 55.9414C190.293 53.6813 190.042 51.4714 189.541 49.362H203.819C205.222 49.362 206.374 48.2068 206.374 46.8005C206.374 45.3942 205.222 44.239 203.819 44.239L195.001 44.3396ZM85.1163 79.1953C72.393 79.1953 62.074 68.849 62.074 56.092C62.074 43.3351 72.393 32.9888 85.1163 32.9888C97.8396 32.9888 108.158 43.3351 108.158 56.092C108.158 68.849 97.8396 79.1953 85.1163 79.1953ZM162.091 79.1953C149.368 79.1953 139.049 68.849 139.049 56.092C139.049 43.3351 149.368 32.9888 162.091 32.9888C174.814 32.9888 185.133 43.3351 185.133 56.092C185.133 68.849 174.814 79.1953 162.091 79.1953Z" fill="#00C800"/>
<path d="M111.016 55.7305C111.016 69.478 99.8714 80.6226 86.124 80.6226C72.3765 80.6226 61.2319 69.478 61.2319 55.7305C61.2319 41.983 72.3765 30.8385 86.124 30.8385C99.8714 30.8385 111.016 41.983 111.016 55.7305Z" fill="#D4D4D4" fill-opacity="0.25"/>
<ellipse cx="162.314" cy="55.2858" rx="24.4474" ry="24.4474" fill="#D4D4D4" fill-opacity="0.25"/>
</svg>
