<svg width="185" height="167" viewBox="0 0 185 167" fill="none" xmlns="http://www.w3.org/2000/svg">
<g opacity="0.5">
<path d="M184.676 73.8486H34.4601V150.215H184.676V73.8486Z" fill="#2D2D2D"/>
<path d="M164.676 107.417H54.4601C43.4144 107.417 34.4601 116.372 34.4601 127.417V147C34.4601 158.046 43.4144 167 54.4601 167H164.676C175.722 167 184.676 158.046 184.676 147V127.417C184.676 116.372 175.722 107.417 164.676 107.417Z" fill="#2D2D2D"/>
<path d="M109.568 150.216C151.049 150.216 184.676 116.589 184.676 75.108C184.676 33.627 151.049 0 109.568 0C68.0871 0 34.4601 33.627 34.4601 75.108C34.4601 116.589 68.0871 150.216 109.568 150.216Z" fill="#2D2D2D"/>
<path d="M78.4078 67.8339C89.9446 67.8339 99.2971 58.4815 99.2971 46.9446C99.2971 35.4078 89.9446 26.0553 78.4078 26.0553C66.8709 26.0553 57.5184 35.4078 57.5184 46.9446C57.5184 58.4815 66.8709 67.8339 78.4078 67.8339Z" fill="white"/>
<path d="M78.414 57.396C84.1821 57.396 88.858 52.7201 88.858 46.952C88.858 41.1839 84.1821 36.5079 78.414 36.5079C72.6459 36.5079 67.97 41.1839 67.97 46.952C67.97 52.7201 72.6459 57.396 78.414 57.396Z" fill="#231F20"/>
<path d="M142.013 67.8339C153.55 67.8339 162.903 58.4815 162.903 46.9446C162.903 35.4078 153.55 26.0553 142.013 26.0553C130.476 26.0553 121.124 35.4078 121.124 46.9446C121.124 58.4815 130.476 67.8339 142.013 67.8339Z" fill="white"/>
<path d="M142.02 57.396C147.788 57.396 152.464 52.7201 152.464 46.952C152.464 41.1839 147.788 36.5079 142.02 36.5079C136.252 36.5079 131.576 41.1839 131.576 46.952C131.576 52.7201 136.252 57.396 142.02 57.396Z" fill="#231F20"/>
<path d="M110.204 62.1649C92.005 62.1649 77.251 75.7838 77.251 92.5825L110.205 149.166V62.1649H110.204Z" fill="#C7EAFB"/>
<path d="M143.155 92.5824H143.154C143.154 75.7837 128.401 62.1648 110.202 62.1648V149.166L143.156 92.5824H143.155Z" fill="#6E00FF"/>
<g clip-path="url(#clip0_1_1214)">
<path d="M5.65889 59.9005H23.3492V124.226C23.3492 129.076 19.3862 133.02 14.5015 133.02C9.62191 133.02 5.65369 129.081 5.65369 124.226V59.9005H5.65889Z" fill="#D1D3D4"/>
<path d="M26.6931 57.8303H2.31613C1.16857 57.8303 0.238281 58.755 0.238281 59.8956C0.238281 61.0363 1.16857 61.961 2.31613 61.961H26.6931C27.8406 61.961 28.7709 61.0363 28.7709 59.8956C28.7709 58.755 27.8406 57.8303 26.6931 57.8303Z" fill="#D1D3D4"/>
<path d="M7.55994 86.0098H21.4487V123.972C21.4487 127.782 18.3397 130.872 14.5069 130.872C10.6741 130.872 7.56514 127.782 7.56514 123.972V86.0098H7.55994Z" fill="#00C800"/>
<path d="M8.98796 55.4955C10.8258 55.4955 12.3156 54.0146 12.3156 52.1879C12.3156 50.3611 10.8258 48.8802 8.98796 48.8802C7.15013 48.8802 5.66028 50.3611 5.66028 52.1879C5.66028 54.0146 7.15013 55.4955 8.98796 55.4955Z" fill="#00C800"/>
<path d="M19.6517 53.8654C22.4962 53.8654 24.8021 51.5734 24.8021 48.746C24.8021 45.9187 22.4962 43.6267 19.6517 43.6267C16.8072 43.6267 14.5013 45.9187 14.5013 48.746C14.5013 51.5734 16.8072 53.8654 19.6517 53.8654Z" fill="#00C800"/>
<path d="M9.06995 85.2643C9.54451 85.2643 9.92921 84.8819 9.92921 84.4102C9.92921 83.9385 9.54451 83.5562 9.06995 83.5562C8.5954 83.5562 8.21069 83.9385 8.21069 84.4102C8.21069 84.8819 8.5954 85.2643 9.06995 85.2643Z" fill="#00C800"/>
<path d="M13.2628 83.5508C14.2752 83.5508 15.0959 82.7351 15.0959 81.7288C15.0959 80.7225 14.2752 79.9067 13.2628 79.9067C12.2504 79.9067 11.4297 80.7225 11.4297 81.7288C11.4297 82.7351 12.2504 83.5508 13.2628 83.5508Z" fill="#00C800"/>
<path d="M11.2167 75.9108C12.1744 75.9108 12.9508 75.139 12.9508 74.1871C12.9508 73.2351 12.1744 72.4634 11.2167 72.4634C10.2589 72.4634 9.48254 73.2351 9.48254 74.1871C9.48254 75.139 10.2589 75.9108 11.2167 75.9108Z" fill="#00C800"/>
<path d="M17.455 68.8921C18.591 68.8921 19.512 67.9767 19.512 66.8475C19.512 65.7183 18.591 64.8029 17.455 64.8029C16.3189 64.8029 15.3979 65.7183 15.3979 66.8475C15.3979 67.9767 16.3189 68.8921 17.455 68.8921Z" fill="#00C800"/>
<path d="M11.0435 45.1018C12.9648 45.1018 14.5222 43.5537 14.5222 41.644C14.5222 39.7344 12.9648 38.1863 11.0435 38.1863C9.12229 38.1863 7.56482 39.7344 7.56482 41.644C7.56482 43.5537 9.12229 45.1018 11.0435 45.1018Z" fill="#00C800"/>
<path d="M20.199 71.0558C20.5758 71.0558 20.8812 70.7522 20.8812 70.3777C20.8812 70.0032 20.5758 69.6996 20.199 69.6996C19.8223 69.6996 19.5168 70.0032 19.5168 70.3777C19.5168 70.7522 19.8223 71.0558 20.199 71.0558Z" fill="#00C800"/>
<path d="M18.2361 84.8037C18.6675 84.8037 19.0172 84.4561 19.0172 84.0273C19.0172 83.5985 18.6675 83.2509 18.2361 83.2509C17.8047 83.2509 17.455 83.5985 17.455 84.0273C17.455 84.4561 17.8047 84.8037 18.2361 84.8037Z" fill="#00C800"/>
</g>
<path d="M169.448 37.3865H163.689C163.689 37.3865 163.479 37.3865 163.395 37.3865C159.653 29.2098 151.414 23.4776 141.872 23.4776C129.429 23.4776 119.214 33.1717 118.289 45.3946C116.86 45.0996 102.245 45.1417 100.816 45.4789C99.9748 33.1717 89.7179 23.4355 77.2329 23.4355C67.6906 23.4355 59.4514 29.1254 55.7101 37.3022H42.8033C41.6263 37.3022 40.6594 38.2716 40.6594 39.4517C40.6594 40.6319 41.6263 41.6013 42.8033 41.6013H54.2388C53.8184 43.3716 53.6082 45.2261 53.6082 47.1227C53.6082 60.1886 64.2015 70.8099 77.2329 70.8099C89.2555 70.8099 99.2182 61.7481 100.689 50.1152C102.077 49.3144 116.944 49.2301 118.373 49.8623C119.76 61.6216 129.765 70.8099 141.872 70.8099C154.903 70.8099 165.497 60.1886 165.497 47.1227C165.497 45.2261 165.286 43.3716 164.866 41.6013H176.848C178.025 41.6013 178.992 40.6319 178.992 39.4517C178.992 38.2716 178.025 37.3022 176.848 37.3022L169.448 37.3865ZM77.2329 66.6373C66.5556 66.6373 57.896 57.9548 57.896 47.2492C57.896 36.5436 66.5556 27.861 77.2329 27.861C87.9103 27.861 96.5698 36.5436 96.5698 47.2492C96.5698 57.9548 87.9103 66.6373 77.2329 66.6373ZM141.83 66.6373C131.152 66.6373 122.493 57.9548 122.493 47.2492C122.493 36.5436 131.152 27.861 141.83 27.861C152.507 27.861 161.167 36.5436 161.167 47.2492C161.167 57.9548 152.507 66.6373 141.83 66.6373Z" fill="#00C800"/>
<path d="M98.968 46.9453C98.968 58.4821 89.6156 67.8346 78.0787 67.8346C66.5419 67.8346 57.1895 58.4821 57.1895 46.9453C57.1895 35.4085 66.5419 26.056 78.0787 26.056C89.6156 26.056 98.968 35.4085 98.968 46.9453Z" fill="#D4D4D4" fill-opacity="0.25"/>
<ellipse cx="142.016" cy="46.5722" rx="20.5162" ry="20.5162" fill="#D4D4D4" fill-opacity="0.25"/>
</g>
<defs>
<clipPath id="clip0_1_1214">
<rect width="28.5326" height="94.8291" fill="white" transform="translate(0.238281 38.1863)"/>
</clipPath>
</defs>
</svg>
