<svg width="214" height="199" viewBox="0 0 214 199" fill="none" xmlns="http://www.w3.org/2000/svg">
<path d="M213.209 88H34.209V179H213.209V88Z" fill="#2D2D2D"/>
<path d="M193.209 128H54.209C43.1633 128 34.209 136.954 34.209 148V179C34.209 190.046 43.1633 199 54.209 199H193.209C204.255 199 213.209 190.046 213.209 179V148C213.209 136.954 204.255 128 193.209 128Z" fill="#2D2D2D"/>
<path d="M123.709 179C173.138 179 213.209 138.929 213.209 89.5C213.209 40.0705 173.138 0 123.709 0C74.2795 0 34.209 40.0705 34.209 89.5C34.209 138.929 74.2795 179 123.709 179Z" fill="#2D2D2D"/>
<path d="M124.461 74.0776C102.774 74.0776 85.1934 90.3061 85.1934 110.324L124.462 177.75V74.0776H124.461Z" fill="#C7EAFB"/>
<path d="M163.726 110.324H163.725C163.725 90.3061 146.145 74.0776 124.459 74.0776V177.75L163.728 110.324H163.726Z" fill="#6E00FF"/>
<rect x="133.891" y="28.6144" width="55.0795" height="5.46365" rx="2.73182" transform="rotate(-17 133.891 28.6144)" fill="#D4D4D4"/>
<rect width="55.0794" height="5.46365" rx="2.73182" transform="matrix(-0.956305 -0.292372 -0.292372 0.956305 112.328 35.8585)" fill="#D4D4D4"/>
<path d="M110.529 58.7121C110.529 55.462 109.889 52.2436 108.645 49.2408C107.401 46.238 105.578 43.5097 103.28 41.2114C100.982 38.9132 98.2531 37.0902 95.2503 35.8464C92.2476 34.6026 89.0292 33.9624 85.779 33.9624C82.5288 33.9624 79.3105 34.6026 76.3077 35.8464C73.3049 37.0902 70.5765 38.9132 68.2783 41.2114C65.9801 43.5097 64.157 46.238 62.9133 49.2408C61.6695 52.2436 61.0293 55.462 61.0293 58.7121L85.779 58.7121H110.529Z" fill="white"/>
<path d="M92.4203 58.7121C92.4203 56.8888 92.0612 55.0834 91.3635 53.3989C90.6657 51.7145 89.6431 50.1839 88.3538 48.8947C87.0646 47.6054 85.534 46.5827 83.8495 45.885C82.165 45.1872 80.3596 44.8281 78.5363 44.8281C76.7131 44.8281 74.9076 45.1872 73.2232 45.885C71.5387 46.5827 70.0081 47.6054 68.7189 48.8947C67.4296 50.1839 66.4069 51.7145 65.7092 53.3989C65.0115 55.0834 64.6523 56.8888 64.6523 58.7121L78.5363 58.7121H92.4203Z" fill="#231F20"/>
<path d="M112.062 60.0821C112.062 74.5075 100.367 86.2017 85.9419 86.2017C71.5164 86.2017 59.8223 74.5075 59.8223 60.0821C59.8223 45.6566 71.5164 33.9624 85.9419 33.9624C100.367 33.9624 112.062 45.6566 112.062 60.0821Z" fill="#D4D4D4" fill-opacity="0.25"/>
<path d="M188.21 61.7121C188.21 58.462 187.57 55.2436 186.326 52.2408C185.083 49.238 183.26 46.5097 180.961 44.2114C178.663 41.9132 175.935 40.0902 172.932 38.8464C169.929 37.6026 166.711 36.9624 163.461 36.9624C160.21 36.9624 156.992 37.6026 153.989 38.8464C150.987 40.0902 148.258 41.9132 145.96 44.2114C143.662 46.5097 141.839 49.238 140.595 52.2408C139.351 55.2436 138.711 58.462 138.711 61.7121L163.461 61.7121H188.21Z" fill="white"/>
<path d="M171.309 61.7121C171.309 59.8888 170.95 58.0834 170.252 56.3989C169.554 54.7145 168.532 53.1839 167.242 51.8947C165.953 50.6054 164.423 49.5827 162.738 48.885C161.054 48.1872 159.248 47.8281 157.425 47.8281C155.602 47.8281 153.796 48.1872 152.112 48.885C150.427 49.5827 148.897 50.6054 147.608 51.8947C146.318 53.1839 145.296 54.7145 144.598 56.3989C143.9 58.0834 143.541 59.8888 143.541 61.7121L157.425 61.7121H171.309Z" fill="#231F20"/>
<ellipse cx="164.831" cy="60.6675" rx="26.1196" ry="26.1197" fill="#D4D4D4" fill-opacity="0.25"/>
<path d="M195.509 49.6721H188.647C188.647 49.6721 188.396 49.6721 188.296 49.6721C183.838 39.9286 174.02 33.098 162.649 33.098C147.822 33.098 135.65 44.6496 134.548 59.2147C132.845 58.8631 115.429 58.9133 113.726 59.3151C112.724 44.6496 100.502 33.0479 85.6244 33.0479C74.2535 33.0479 64.4355 39.828 59.9773 49.5715H44.5975C43.1949 49.5715 42.0427 50.7268 42.0427 52.133C42.0427 53.5393 43.1949 54.6945 44.5975 54.6945H58.2241C57.7232 56.8039 57.4728 59.0138 57.4728 61.2739C57.4728 76.8434 70.0959 89.4999 85.6244 89.4999C99.9506 89.4999 111.822 78.7017 113.576 64.8398C115.229 63.8855 132.945 63.7851 134.648 64.5384C136.301 78.551 148.223 89.4999 162.649 89.4999C178.178 89.4999 190.801 76.8434 190.801 61.2739C190.801 59.0138 190.55 56.8039 190.049 54.6945H204.327C205.73 54.6945 206.882 53.5393 206.882 52.133C206.882 50.7268 205.73 49.5715 204.327 49.5715L195.509 49.6721ZM85.6244 84.5278C72.901 84.5278 62.5821 74.1815 62.5821 61.4246C62.5821 48.6676 72.901 38.3213 85.6244 38.3213C98.3477 38.3213 108.666 48.6676 108.666 61.4246C108.666 74.1815 98.3477 84.5278 85.6244 84.5278ZM162.599 84.5278C149.876 84.5278 139.557 74.1815 139.557 61.4246C139.557 48.6676 149.876 38.3213 162.599 38.3213C175.322 38.3213 185.642 48.6676 185.642 61.4246C185.642 74.1815 175.322 84.5278 162.599 84.5278Z" fill="#00C800"/>
<path d="M111.524 61.0631C111.524 74.8105 100.379 85.9551 86.632 85.9551C72.8845 85.9551 61.74 74.8105 61.74 61.0631C61.74 47.3156 72.8845 36.171 86.632 36.171C100.379 36.171 111.524 47.3156 111.524 61.0631Z" fill="#D4D4D4" fill-opacity="0.25"/>
<ellipse cx="162.822" cy="60.6183" rx="24.4474" ry="24.4474" fill="#D4D4D4" fill-opacity="0.25"/>
</svg>
