<svg width="339" height="228" viewBox="0 0 339 228" fill="none" xmlns="http://www.w3.org/2000/svg">
<path d="M173.286 177.321L131.812 217.266L11.9779 92.842L53.4518 52.8979L173.286 177.321Z" fill="#231F20"/>
<path d="M165.873 176.074L207.347 216.019L327.181 91.595L285.707 51.6508L165.873 176.074Z" fill="#231F20"/>
<path d="M268.226 116.682H89.2261V207.682H268.226V116.682Z" fill="#2D2D2D"/>
<path d="M248.226 156.682H109.226C98.1804 156.682 89.2261 165.636 89.2261 176.682V207.682C89.2261 218.727 98.1804 227.682 109.226 227.682H248.226C259.272 227.682 268.226 218.727 268.226 207.682V176.682C268.226 165.636 259.272 156.682 248.226 156.682Z" fill="#2D2D2D"/>
<path d="M178.726 207.682C228.156 207.682 268.226 167.611 268.226 118.182C268.226 68.7521 228.156 28.6816 178.726 28.6816C129.297 28.6816 89.2261 68.7521 89.2261 118.182C89.2261 167.611 129.297 207.682 178.726 207.682Z" fill="#2D2D2D"/>
<path d="M141.591 109.515C155.338 109.515 166.483 98.3705 166.483 84.623C166.483 70.8755 155.338 59.7309 141.591 59.7309C127.843 59.7309 116.699 70.8755 116.699 84.623C116.699 98.3705 127.843 109.515 141.591 109.515Z" fill="white"/>
<path d="M141.592 92.0899C145.716 92.0899 149.059 88.7467 149.059 84.6228C149.059 80.4988 145.716 77.1557 141.592 77.1557C137.468 77.1557 134.125 80.4988 134.125 84.6228C134.125 88.7467 137.468 92.0899 141.592 92.0899Z" fill="#231F20"/>
<path d="M217.384 109.515C231.131 109.515 242.276 98.3705 242.276 84.623C242.276 70.8755 231.131 59.7309 217.384 59.7309C203.636 59.7309 192.492 70.8755 192.492 84.623C192.492 98.3705 203.636 109.515 217.384 109.515Z" fill="white"/>
<path d="M216.664 92.0899C220.788 92.0899 224.131 88.7467 224.131 84.6228C224.131 80.4988 220.788 77.1557 216.664 77.1557C212.54 77.1557 209.197 80.4988 209.197 84.6228C209.197 88.7467 212.54 92.0899 216.664 92.0899Z" fill="#231F20"/>
<path d="M154.045 128.205C148.759 149.237 160.213 170.243 179.627 175.122L254.591 153.471L154.045 128.203L154.045 128.205Z" fill="#C7EAFB"/>
<path d="M175.778 102.104L175.779 102.105C156.903 108.769 147.453 130.749 154.673 151.198L252.431 116.683L175.778 102.102L175.778 102.104Z" fill="#6E00FF"/>
<rect x="207.798" y="38.3437" width="55.0795" height="5.46365" rx="2.73182" transform="rotate(37.7566 207.798 38.3437)" fill="#D4D4D4"/>
<rect width="55.0794" height="5.46365" rx="2.73182" transform="matrix(-0.790619 0.612308 0.612308 0.790619 148.697 40.6507)" fill="#D4D4D4"/>
<path d="M247.838 17.0644C261.511 2.86951 284.101 2.44639 298.296 16.1179L273.54 41.8198L247.838 17.0644Z" fill="#6E00FF"/>
<path d="M262.749 31.5501C277.081 17.1269 300.39 17.0527 314.813 31.3831L288.865 57.4985L262.749 31.5501Z" fill="#231F20"/>
<path d="M283.291 51.9657C296.964 37.7709 319.554 37.3478 333.749 51.0193L308.993 76.7212L283.291 51.9657Z" fill="#6E00FF"/>
<path d="M91.3189 18.3114C77.6459 4.11658 55.0561 3.69346 40.8615 17.365L65.617 43.0669L91.3189 18.3114Z" fill="#6E00FF"/>
<path d="M76.41 32.7972C62.0782 18.374 38.7691 18.2998 24.3462 32.6302L50.2946 58.7456L76.41 32.7972Z" fill="#231F20"/>
<path d="M55.8677 53.2128C42.1947 39.0179 19.6049 38.5948 5.41037 52.2663L30.1658 77.9682L55.8677 53.2128Z" fill="#6E00FF"/>
<path d="M141.177 109.601C154.924 109.601 166.069 98.4564 166.069 84.7089C166.069 70.9614 154.924 59.8169 141.177 59.8169C127.429 59.8169 116.285 70.9614 116.285 84.7089C116.285 98.4564 127.429 109.601 141.177 109.601Z" fill="white"/>
<path d="M141.176 92.8102C145.499 92.8102 149.003 89.306 149.003 84.9832C149.003 80.6605 145.499 77.1562 141.176 77.1562C136.853 77.1562 133.349 80.6605 133.349 84.9832C133.349 89.306 136.853 92.8102 141.176 92.8102Z" fill="#231F20"/>
<path d="M248.689 45.1555H241.826C241.826 45.1555 241.576 45.1555 241.476 45.1555C237.018 35.4119 227.2 28.5813 215.829 28.5813C201.001 28.5813 188.829 40.133 187.727 54.698C186.024 54.3465 168.608 54.3967 166.905 54.7984C165.903 40.1329 153.681 28.5312 138.804 28.5312C127.433 28.5312 117.615 35.3114 113.157 45.0549H97.7769C96.3743 45.0549 95.2222 46.2101 95.2222 47.6164C95.2222 49.0227 96.3743 50.1779 97.7769 50.1779H111.404C110.903 52.2873 110.652 54.4972 110.652 56.7573C110.652 72.3268 123.275 84.9833 138.804 84.9833C153.13 84.9833 165.002 74.1851 166.755 60.3231C168.408 59.3689 186.124 59.2685 187.827 60.0218C189.48 74.0344 201.402 84.9833 215.829 84.9833C231.357 84.9833 243.98 72.3268 243.98 56.7573C243.98 54.4972 243.73 52.2873 243.229 50.1779H257.507C258.909 50.1779 260.062 49.0227 260.062 47.6164C260.062 46.2101 258.909 45.0549 257.507 45.0549L248.689 45.1555ZM138.804 80.0112C126.08 80.0112 115.762 69.6649 115.762 56.9079C115.762 44.151 126.08 33.8047 138.804 33.8047C151.527 33.8047 161.846 44.151 161.846 56.9079C161.846 69.6649 151.527 80.0112 138.804 80.0112ZM215.779 80.0112C203.055 80.0112 192.736 69.6649 192.736 56.9079C192.736 44.151 203.055 33.8047 215.779 33.8047C228.502 33.8047 238.821 44.151 238.821 56.9079C238.821 69.6649 228.502 80.0112 215.779 80.0112Z" fill="#00C800"/>
<path d="M164.703 56.5464C164.703 70.2939 153.559 81.4384 139.811 81.4384C126.064 81.4384 114.919 70.2939 114.919 56.5464C114.919 42.7989 126.064 31.6544 139.811 31.6544C153.559 31.6544 164.703 42.7989 164.703 56.5464Z" fill="#D4D4D4" fill-opacity="0.25"/>
<ellipse cx="216.002" cy="56.1017" rx="24.4474" ry="24.4474" fill="#D4D4D4" fill-opacity="0.25"/>
<path d="M26.0471 79.023C46.19 100.297 79.7656 101.215 101.041 81.0729C122.315 60.93 123.232 27.3544 103.09 6.07932L26.0481 79.0222L26.0471 79.023Z" fill="#231F20"/>
<path d="M313.11 77.7759C292.967 99.0502 259.392 99.9676 238.117 79.8258C216.842 59.6829 215.925 26.1073 236.067 4.83225L313.109 77.7751L313.11 77.7759Z" fill="#231F20"/>
</svg>
