<svg width="618" height="237" viewBox="0 0 618 237" fill="none" xmlns="http://www.w3.org/2000/svg">
<path d="M398.209 88H219.209V179H398.209V88Z" fill="#2D2D2D"/>
<path d="M378.209 128H239.209C228.163 128 219.209 136.954 219.209 148V179C219.209 190.046 228.163 199 239.209 199H378.209C389.255 199 398.209 190.046 398.209 179V148C398.209 136.954 389.255 128 378.209 128Z" fill="#2D2D2D"/>
<path d="M308.709 179C358.138 179 398.209 138.929 398.209 89.5C398.209 40.0705 358.138 0 308.709 0C259.279 0 219.209 40.0705 219.209 89.5C219.209 138.929 259.279 179 308.709 179Z" fill="#2D2D2D"/>
<path d="M309.461 74.0776C287.774 74.0776 270.193 90.3061 270.193 110.324L309.462 177.75V74.0776H309.461Z" fill="#C7EAFB"/>
<path d="M348.726 110.324H348.725C348.725 90.3061 331.145 74.0776 309.459 74.0776V177.75L348.728 110.324H348.726Z" fill="#6E00FF"/>
<path d="M572.418 210.021C597.271 210.021 617.418 189.873 617.418 165.021C617.418 140.168 597.271 120.021 572.418 120.021C547.565 120.021 527.418 140.168 527.418 165.021C527.418 189.873 547.565 210.021 572.418 210.021Z" fill="#00C800"/>
<path d="M27.9999 119C43.4639 119 55.9999 106.464 55.9999 91C55.9999 75.536 43.4639 63 27.9999 63C12.5359 63 -0.00012207 75.536 -0.00012207 91C-0.00012207 106.464 12.5359 119 27.9999 119Z" fill="#00C800"/>
<rect x="318.891" y="28.6144" width="55.0795" height="5.46365" rx="2.73182" transform="rotate(-17 318.891 28.6144)" fill="#D4D4D4"/>
<rect width="55.0794" height="5.46365" rx="2.73182" transform="matrix(-0.956305 -0.292372 -0.292372 0.956305 297.328 35.8585)" fill="#D4D4D4"/>
<path d="M295.529 58.7121C295.529 55.462 294.889 52.2436 293.645 49.2408C292.401 46.238 290.578 43.5097 288.28 41.2114C285.982 38.9132 283.253 37.0902 280.25 35.8464C277.248 34.6026 274.029 33.9624 270.779 33.9624C267.529 33.9624 264.31 34.6026 261.308 35.8464C258.305 37.0902 255.577 38.9132 253.278 41.2114C250.98 43.5097 249.157 46.238 247.913 49.2408C246.669 52.2436 246.029 55.462 246.029 58.7121L270.779 58.7121H295.529Z" fill="white"/>
<path d="M277.42 58.7121C277.42 56.8888 277.061 55.0834 276.363 53.3989C275.666 51.7145 274.643 50.1839 273.354 48.8947C272.065 47.6054 270.534 46.5827 268.85 45.885C267.165 45.1872 265.36 44.8281 263.536 44.8281C261.713 44.8281 259.908 45.1872 258.223 45.885C256.539 46.5827 255.008 47.6054 253.719 48.8947C252.43 50.1839 251.407 51.7145 250.709 53.3989C250.011 55.0834 249.652 56.8888 249.652 58.7121L263.536 58.7121H277.42Z" fill="#231F20"/>
<path d="M297.062 60.0821C297.062 74.5075 285.367 86.2017 270.942 86.2017C256.516 86.2017 244.822 74.5075 244.822 60.0821C244.822 45.6566 256.516 33.9624 270.942 33.9624C285.367 33.9624 297.062 45.6566 297.062 60.0821Z" fill="#D4D4D4" fill-opacity="0.25"/>
<path d="M373.21 61.7121C373.21 58.462 372.57 55.2436 371.326 52.2408C370.083 49.238 368.26 46.5097 365.961 44.2114C363.663 41.9132 360.935 40.0902 357.932 38.8464C354.929 37.6026 351.711 36.9624 348.461 36.9624C345.21 36.9624 341.992 37.6026 338.989 38.8464C335.987 40.0902 333.258 41.9132 330.96 44.2114C328.662 46.5097 326.839 49.238 325.595 52.2408C324.351 55.2436 323.711 58.462 323.711 61.7121L348.461 61.7121H373.21Z" fill="white"/>
<path d="M356.309 61.7121C356.309 59.8888 355.95 58.0834 355.252 56.3989C354.554 54.7145 353.532 53.1839 352.242 51.8947C350.953 50.6054 349.423 49.5827 347.738 48.885C346.054 48.1872 344.248 47.8281 342.425 47.8281C340.602 47.8281 338.796 48.1872 337.112 48.885C335.427 49.5827 333.897 50.6054 332.608 51.8947C331.318 53.1839 330.296 54.7145 329.598 56.3989C328.9 58.0834 328.541 59.8888 328.541 61.7121L342.425 61.7121H356.309Z" fill="#231F20"/>
<ellipse cx="349.831" cy="60.6675" rx="26.1196" ry="26.1197" fill="#D4D4D4" fill-opacity="0.25"/>
<path d="M380.51 49.6721H373.647C373.647 49.6721 373.397 49.6721 373.296 49.6721C368.838 39.9286 359.02 33.098 347.649 33.098C332.822 33.098 320.65 44.6496 319.548 59.2147C317.845 58.8631 300.429 58.9133 298.726 59.3151C297.724 44.6496 285.502 33.0479 270.624 33.0479C259.254 33.0479 249.436 39.828 244.977 49.5715H229.598C228.195 49.5715 227.043 50.7268 227.043 52.133C227.043 53.5393 228.195 54.6945 229.598 54.6945H243.224C242.723 56.8039 242.473 59.0138 242.473 61.2739C242.473 76.8434 255.096 89.4999 270.624 89.4999C284.951 89.4999 296.822 78.7017 298.576 64.8398C300.229 63.8855 317.945 63.7851 319.648 64.5384C321.301 78.551 333.223 89.4999 347.649 89.4999C363.178 89.4999 375.801 76.8434 375.801 61.2739C375.801 59.0138 375.55 56.8039 375.049 54.6945H389.327C390.73 54.6945 391.882 53.5393 391.882 52.133C391.882 50.7268 390.73 49.5715 389.327 49.5715L380.51 49.6721ZM270.624 84.5278C257.901 84.5278 247.582 74.1815 247.582 61.4246C247.582 48.6676 257.901 38.3213 270.624 38.3213C283.348 38.3213 293.667 48.6676 293.667 61.4246C293.667 74.1815 283.348 84.5278 270.624 84.5278ZM347.599 84.5278C334.876 84.5278 324.557 74.1815 324.557 61.4246C324.557 48.6676 334.876 38.3213 347.599 38.3213C360.323 38.3213 370.642 48.6676 370.642 61.4246C370.642 74.1815 360.323 84.5278 347.599 84.5278Z" fill="#00C800"/>
<path d="M296.524 61.0631C296.524 74.8105 285.38 85.9551 271.632 85.9551C257.885 85.9551 246.74 74.8105 246.74 61.0631C246.74 47.3156 257.885 36.171 271.632 36.171C285.38 36.171 296.524 47.3156 296.524 61.0631Z" fill="#D4D4D4" fill-opacity="0.25"/>
<ellipse cx="347.822" cy="60.6183" rx="24.4474" ry="24.4474" fill="#D4D4D4" fill-opacity="0.25"/>
<path fill-rule="evenodd" clip-rule="evenodd" d="M130.366 189.984C132.593 184.492 130.936 177.983 125.959 174.281C121.971 171.315 116.869 170.91 112.622 172.778C112.197 172.313 111.722 171.882 111.198 171.492C107.556 168.784 102.683 168.909 99.2172 171.48C98.6567 170.741 97.9836 170.067 97.2018 169.486C92.7486 166.174 86.454 167.1 83.1422 171.553C82.4768 172.448 81.9824 173.417 81.6533 174.421C76.9989 173.79 72.1514 175.642 69.1501 179.678C64.7555 185.587 65.9833 193.94 71.8926 198.335C73.8413 199.784 76.0558 200.622 78.3064 200.882C78.4698 201.261 78.6513 201.634 78.8506 201.998C76.609 202.71 74.8645 204.662 74.5375 207.148C74.0869 210.574 76.4989 213.717 79.9249 214.167C81.1028 214.322 82.2471 214.139 83.2601 213.692C84.0526 215.772 85.9324 217.362 88.2941 217.673C90.773 217.999 93.1036 216.826 94.3735 214.855C94.8527 215.343 95.3756 215.8 95.9415 216.221C101.851 220.616 110.204 219.388 114.598 213.479C115.129 212.765 115.577 212.016 115.946 211.243C121.266 213.026 127.351 211.3 130.881 206.553C134.654 201.481 134.283 194.608 130.366 189.984Z" fill="#979797" fill-opacity="0.7"/>
</svg>
