<svg width="728" height="304" viewBox="0 0 728 304" fill="none" xmlns="http://www.w3.org/2000/svg">
<path d="M461.659 125H282.659V216H461.659V125Z" fill="#2D2D2D"/>
<path d="M441.659 165H302.659C291.613 165 282.659 173.954 282.659 185V216C282.659 227.046 291.613 236 302.659 236H441.659C452.705 236 461.659 227.046 461.659 216V185C461.659 173.954 452.705 165 441.659 165Z" fill="#2D2D2D"/>
<path d="M372.159 216C421.589 216 461.659 175.929 461.659 126.5C461.659 77.0705 421.589 37 372.159 37C322.73 37 282.659 77.0705 282.659 126.5C282.659 175.929 322.73 216 372.159 216Z" fill="#2D2D2D"/>
<path d="M335.024 117.833C348.771 117.833 359.916 106.689 359.916 92.9414C359.916 79.1939 348.771 68.0493 335.024 68.0493C321.276 68.0493 310.132 79.1939 310.132 92.9414C310.132 106.689 321.276 117.833 335.024 117.833Z" fill="white"/>
<path d="M335.032 105.395C341.906 105.395 347.478 99.8228 347.478 92.9494C347.478 86.0761 341.906 80.5042 335.032 80.5042C328.159 80.5042 322.587 86.0761 322.587 92.9494C322.587 99.8228 328.159 105.395 335.032 105.395Z" fill="#231F20"/>
<path d="M410.817 117.833C424.564 117.833 435.709 106.689 435.709 92.9414C435.709 79.1939 424.564 68.0493 410.817 68.0493C397.069 68.0493 385.925 79.1939 385.925 92.9414C385.925 106.689 397.069 117.833 410.817 117.833Z" fill="white"/>
<path d="M410.825 105.395C417.699 105.395 423.27 99.8228 423.27 92.9494C423.27 86.0761 417.699 80.5042 410.825 80.5042C403.952 80.5042 398.38 86.0761 398.38 92.9494C398.38 99.8228 403.952 105.395 410.825 105.395Z" fill="#231F20"/>
<path d="M372.913 111.078C351.227 111.078 333.646 127.306 333.646 147.324L372.914 214.75V111.078H372.913Z" fill="#C7EAFB"/>
<path d="M412.178 147.324H412.177C412.177 127.306 394.597 111.078 372.911 111.078V214.75L412.18 147.324H412.178Z" fill="#6E00FF"/>
<g clip-path="url(#clip0_94_1007)">
<path d="M248.337 108.379H269.417V185.03C269.417 190.81 264.695 195.51 258.874 195.51C253.06 195.51 248.331 190.816 248.331 185.03V108.379H248.337Z" fill="#D1D3D4"/>
<path d="M273.402 105.912H244.354C242.986 105.912 241.878 107.014 241.878 108.373C241.878 109.732 242.986 110.834 244.354 110.834H273.402C274.769 110.834 275.878 109.732 275.878 108.373C275.878 107.014 274.769 105.912 273.402 105.912Z" fill="#D1D3D4"/>
<path d="M250.603 139.491H267.153V184.728C267.153 189.268 263.448 192.95 258.881 192.95C254.313 192.95 250.609 189.268 250.609 184.728V139.491H250.603Z" fill="#00C800"/>
<path d="M252.304 103.13C254.494 103.13 256.27 101.365 256.27 99.1885C256.27 97.0117 254.494 95.2471 252.304 95.2471C250.114 95.2471 248.339 97.0117 248.339 99.1885C248.339 101.365 250.114 103.13 252.304 103.13Z" fill="#00C800"/>
<path d="M265.011 101.187C268.401 101.187 271.149 98.4562 271.149 95.0871C271.149 91.718 268.401 88.9868 265.011 88.9868C261.622 88.9868 258.874 91.718 258.874 95.0871C258.874 98.4562 261.622 101.187 265.011 101.187Z" fill="#00C800"/>
<path d="M252.402 138.603C252.967 138.603 253.426 138.147 253.426 137.585C253.426 137.023 252.967 136.567 252.402 136.567C251.836 136.567 251.378 137.023 251.378 137.585C251.378 138.147 251.836 138.603 252.402 138.603Z" fill="#00C800"/>
<path d="M257.398 136.561C258.605 136.561 259.583 135.589 259.583 134.39C259.583 133.191 258.605 132.219 257.398 132.219C256.192 132.219 255.214 133.191 255.214 134.39C255.214 135.589 256.192 136.561 257.398 136.561Z" fill="#00C800"/>
<path d="M254.96 127.457C256.101 127.457 257.026 126.537 257.026 125.403C257.026 124.269 256.101 123.349 254.96 123.349C253.819 123.349 252.894 124.269 252.894 125.403C252.894 126.537 253.819 127.457 254.96 127.457Z" fill="#00C800"/>
<path d="M262.394 119.094C263.747 119.094 264.845 118.003 264.845 116.657C264.845 115.312 263.747 114.221 262.394 114.221C261.04 114.221 259.942 115.312 259.942 116.657C259.942 118.003 261.04 119.094 262.394 119.094Z" fill="#00C800"/>
<path d="M254.754 90.7445C257.043 90.7445 258.899 88.8998 258.899 86.6242C258.899 84.3486 257.043 82.5039 254.754 82.5039C252.464 82.5039 250.608 84.3486 250.608 86.6242C250.608 88.8998 252.464 90.7445 254.754 90.7445Z" fill="#00C800"/>
<path d="M265.664 121.672C266.112 121.672 266.476 121.31 266.476 120.864C266.476 120.417 266.112 120.056 265.664 120.056C265.215 120.056 264.851 120.417 264.851 120.864C264.851 121.31 265.215 121.672 265.664 121.672Z" fill="#00C800"/>
<path d="M263.324 138.054C263.838 138.054 264.255 137.64 264.255 137.129C264.255 136.618 263.838 136.204 263.324 136.204C262.81 136.204 262.394 136.618 262.394 137.129C262.394 137.64 262.81 138.054 263.324 138.054Z" fill="#00C800"/>
</g>
<path d="M536.878 142.504C553.999 142.504 567.878 128.625 567.878 111.504C567.878 94.3831 553.999 80.5039 536.878 80.5039C519.757 80.5039 505.878 94.3831 505.878 111.504C505.878 128.625 519.757 142.504 536.878 142.504Z" fill="#00C800"/>
<path d="M682.878 199.504C707.731 199.504 727.878 179.357 727.878 154.504C727.878 129.651 707.731 109.504 682.878 109.504C658.025 109.504 637.878 129.651 637.878 154.504C637.878 179.357 658.025 199.504 682.878 199.504Z" fill="#00C800"/>
<path d="M72.8779 182.504C88.3419 182.504 100.878 169.968 100.878 154.504C100.878 139.04 88.3419 126.504 72.8779 126.504C57.414 126.504 44.8779 139.04 44.8779 154.504C44.8779 169.968 57.414 182.504 72.8779 182.504Z" fill="#00C800"/>
<path d="M443.513 81.5505H436.65C436.65 81.5505 436.4 81.5505 436.299 81.5505C431.841 71.807 422.023 64.9764 410.652 64.9764C395.825 64.9764 383.653 76.528 382.551 91.0931C380.848 90.7415 363.432 90.7917 361.729 91.1935C360.727 76.528 348.505 64.9263 333.628 64.9263C322.257 64.9263 312.439 71.7064 307.981 81.45H292.601C291.198 81.45 290.046 82.6052 290.046 84.0114C290.046 85.4177 291.198 86.5729 292.601 86.5729H306.227C305.726 88.6824 305.476 90.8922 305.476 93.1523C305.476 108.722 318.099 121.378 333.628 121.378C347.954 121.378 359.826 110.58 361.579 96.7182C363.232 95.7639 380.948 95.6635 382.651 96.4169C384.304 110.429 396.226 121.378 410.652 121.378C426.181 121.378 438.804 108.722 438.804 93.1523C438.804 90.8922 438.553 88.6824 438.052 86.5729H452.33C453.733 86.5729 454.885 85.4177 454.885 84.0114C454.885 82.6052 453.733 81.45 452.33 81.45L443.513 81.5505ZM333.628 116.406C320.904 116.406 310.585 106.06 310.585 93.303C310.585 80.546 320.904 70.1998 333.628 70.1998C346.351 70.1998 356.67 80.546 356.67 93.303C356.67 106.06 346.351 116.406 333.628 116.406ZM410.602 116.406C397.879 116.406 387.56 106.06 387.56 93.303C387.56 80.546 397.879 70.1998 410.602 70.1998C423.326 70.1998 433.645 80.546 433.645 93.303C433.645 106.06 423.326 116.406 410.602 116.406Z" fill="#00C800"/>
<path d="M359.527 92.9415C359.527 106.689 348.383 117.833 334.635 117.833C320.888 117.833 309.743 106.689 309.743 92.9415C309.743 79.194 320.888 68.0494 334.635 68.0494C348.383 68.0494 359.527 79.194 359.527 92.9415Z" fill="#D4D4D4" fill-opacity="0.25"/>
<ellipse cx="410.825" cy="92.4968" rx="24.4474" ry="24.4474" fill="#D4D4D4" fill-opacity="0.25"/>
<defs>
<clipPath id="clip0_94_1007">
<rect width="34" height="113" fill="white" transform="translate(241.878 82.5039)"/>
</clipPath>
</defs>
</svg>
