<svg width="727" height="304" viewBox="0 0 727 304" fill="none" xmlns="http://www.w3.org/2000/svg">
<path d="M464.994 160H285.994V251H464.994V160Z" fill="#2D2D2D"/>
<path d="M444.994 200H305.994C294.949 200 285.994 208.954 285.994 220V251C285.994 262.046 294.949 271 305.994 271H444.994C456.04 271 464.994 262.046 464.994 251V220C464.994 208.954 456.04 200 444.994 200Z" fill="#2D2D2D"/>
<path d="M375.494 251C424.924 251 464.994 210.929 464.994 161.5C464.994 112.071 424.924 72 375.494 72C326.065 72 285.994 112.071 285.994 161.5C285.994 210.929 326.065 251 375.494 251Z" fill="#2D2D2D"/>
<path d="M338.359 152.833C352.107 152.833 363.251 141.689 363.251 127.941C363.251 114.194 352.107 103.049 338.359 103.049C324.612 103.049 313.467 114.194 313.467 127.941C313.467 141.689 324.612 152.833 338.359 152.833Z" fill="white"/>
<path d="M338.36 135.408C342.484 135.408 345.827 132.065 345.827 127.941C345.827 123.817 342.484 120.474 338.36 120.474C334.236 120.474 330.893 123.817 330.893 127.941C330.893 132.065 334.236 135.408 338.36 135.408Z" fill="#231F20"/>
<path d="M414.152 152.833C427.9 152.833 439.044 141.689 439.044 127.941C439.044 114.194 427.9 103.049 414.152 103.049C400.405 103.049 389.26 114.194 389.26 127.941C389.26 141.689 400.405 152.833 414.152 152.833Z" fill="white"/>
<path d="M413.432 135.409C417.556 135.409 420.899 132.066 420.899 127.942C420.899 123.818 417.556 120.475 413.432 120.475C409.308 120.475 405.965 123.818 405.965 127.942C405.965 132.066 409.308 135.409 413.432 135.409Z" fill="#231F20"/>
<path d="M349.069 173.149C343.783 194.181 355.237 215.188 374.651 220.067L449.615 198.415L349.069 173.148L349.069 173.149Z" fill="#C7EAFB"/>
<path d="M378.875 145.637C359.003 148.052 345.015 167.462 347.631 188.989L450.546 176.481L378.875 145.634L378.875 145.637Z" fill="#6E00FF"/>
<path d="M396.459 89.0213C396.725 87.536 398.144 86.5471 399.629 86.8125L448.471 95.5388C449.957 95.8041 450.946 97.2232 450.68 98.7085C450.415 100.194 448.996 101.183 447.51 100.917L398.668 92.191C397.183 91.9256 396.194 90.5065 396.459 89.0213Z" fill="#D4D4D4"/>
<path d="M347.136 86.1291C346.212 84.9362 344.496 84.7181 343.303 85.642L304.076 116.022C302.883 116.946 302.665 118.662 303.589 119.855C304.513 121.047 306.229 121.266 307.422 120.342L346.649 89.9616C347.842 89.0378 348.06 87.3219 347.136 86.1291Z" fill="#D4D4D4"/>
<path d="M337.943 152.92C351.691 152.92 362.835 141.775 362.835 128.028C362.835 114.28 351.691 103.136 337.943 103.136C324.196 103.136 313.051 114.28 313.051 128.028C313.051 141.775 324.196 152.92 337.943 152.92Z" fill="white"/>
<path d="M337.943 136.129C342.265 136.129 345.77 132.624 345.77 128.302C345.77 123.979 342.265 120.475 337.943 120.475C333.62 120.475 330.116 123.979 330.116 128.302C330.116 132.624 333.62 136.129 337.943 136.129Z" fill="#231F20"/>
<path d="M446.879 116.34H440.017C440.017 116.34 439.766 116.34 439.666 116.34C435.208 106.596 425.39 99.7654 414.019 99.7654C399.192 99.7654 387.02 111.317 385.917 125.882C384.214 125.531 366.799 125.581 365.096 125.983C364.094 111.317 351.871 99.7153 336.994 99.7153C325.623 99.7153 315.805 106.496 311.347 116.239H295.967C294.565 116.239 293.412 117.394 293.412 118.801C293.412 120.207 294.565 121.362 295.967 121.362H309.594C309.093 123.471 308.842 125.681 308.842 127.941C308.842 143.511 321.466 156.167 336.994 156.167C351.32 156.167 363.192 145.369 364.945 131.507C366.598 130.553 384.314 130.453 386.018 131.206C387.671 145.219 399.592 156.167 414.019 156.167C429.547 156.167 442.171 143.511 442.171 127.941C442.171 125.681 441.92 123.471 441.419 121.362H455.697C457.1 121.362 458.252 120.207 458.252 118.801C458.252 117.394 457.1 116.239 455.697 116.239L446.879 116.34ZM336.994 151.195C324.271 151.195 313.952 140.849 313.952 128.092C313.952 115.335 324.271 104.989 336.994 104.989C349.717 104.989 360.036 115.335 360.036 128.092C360.036 140.849 349.717 151.195 336.994 151.195ZM413.969 151.195C401.245 151.195 390.927 140.849 390.927 128.092C390.927 115.335 401.245 104.989 413.969 104.989C426.692 104.989 437.011 115.335 437.011 128.092C437.011 140.849 426.692 151.195 413.969 151.195Z" fill="#00C800"/>
<path d="M362.894 127.731C362.894 141.478 351.749 152.623 338.002 152.623C324.254 152.623 313.11 141.478 313.11 127.731C313.11 113.983 324.254 102.839 338.002 102.839C351.749 102.839 362.894 113.983 362.894 127.731Z" fill="#D4D4D4" fill-opacity="0.25"/>
<path d="M438.639 127.286C438.639 140.788 427.694 151.733 414.192 151.733C400.69 151.733 389.744 140.788 389.744 127.286C389.744 113.784 400.69 102.838 414.192 102.838C427.694 102.838 438.639 113.784 438.639 127.286Z" fill="#D4D4D4" fill-opacity="0.25"/>
<path d="M528.327 72C545.447 72 559.326 58.1208 559.326 41C559.326 23.8792 545.447 10 528.327 10C511.206 10 497.327 23.8792 497.327 41C497.327 58.1208 511.206 72 528.327 72Z" fill="#00C800"/>
<path d="M636.991 208.245C661.843 208.245 681.991 188.098 681.991 163.245C681.991 138.392 661.843 118.245 636.991 118.245C612.138 118.245 591.991 138.392 591.991 163.245C591.991 188.098 612.138 208.245 636.991 208.245Z" fill="#00C800"/>
<path d="M88.4945 121.076C103.958 121.076 116.494 108.54 116.494 93.0762C116.494 77.6122 103.958 65.0762 88.4945 65.0762C73.0305 65.0762 60.4945 77.6122 60.4945 93.0762C60.4945 108.54 73.0305 121.076 88.4945 121.076Z" fill="#00C800"/>
<path d="M317.384 255.295C320.189 248.375 318.101 240.173 311.83 235.509C306.804 231.771 300.375 231.261 295.024 233.614C294.489 233.029 293.89 232.486 293.23 231.995C288.641 228.582 282.499 228.74 278.131 231.98C277.425 231.048 276.577 230.199 275.591 229.466C269.979 225.293 262.047 226.459 257.873 232.071C257.035 233.199 256.411 234.42 255.997 235.686C250.131 234.89 244.021 237.224 240.238 242.31C234.7 249.757 236.247 260.284 243.694 265.822C246.15 267.649 248.941 268.704 251.778 269.032C251.984 269.51 252.213 269.979 252.464 270.438C249.639 271.336 247.441 273.796 247.029 276.928C246.461 281.246 249.5 285.206 253.818 285.774C255.302 285.97 256.744 285.738 258.021 285.176C259.02 287.797 261.389 289.8 264.365 290.192C267.489 290.603 270.426 289.125 272.026 286.64C272.63 287.255 273.29 287.832 274.003 288.362C281.45 293.9 291.976 292.353 297.514 284.906C298.183 284.007 298.748 283.063 299.212 282.089C305.917 284.337 313.587 282.162 318.036 276.179C322.79 269.786 322.323 261.123 317.384 255.295Z" fill="#979797" fill-opacity="0.7"/>
<path d="M82.2448 204.134C84.4717 198.642 82.8156 192.133 77.8386 188.432C73.85 185.465 68.7481 185.061 64.5016 186.928C64.0764 186.464 63.6012 186.033 63.0771 185.643C59.4356 182.935 54.5627 183.06 51.0964 185.63C50.5359 184.891 49.8628 184.218 49.081 183.636C44.6279 180.325 38.3332 181.25 35.0215 185.703C34.356 186.598 33.8616 187.567 33.5326 188.571C28.8781 187.94 24.0306 189.793 21.0294 193.828C16.6347 199.738 17.8626 208.09 23.7718 212.485C25.7205 213.934 27.935 214.772 30.1857 215.032C30.3491 215.411 30.5305 215.784 30.7298 216.148C28.4882 216.86 26.7438 218.812 26.4167 221.298C25.9661 224.725 28.3781 227.867 31.8042 228.318C32.982 228.473 34.1263 228.289 35.1393 227.843C35.9318 229.923 37.8116 231.513 40.1733 231.823C42.6523 232.149 44.9829 230.977 46.2527 229.006C46.7319 229.493 47.2549 229.951 47.8208 230.371C53.73 234.766 62.0829 233.538 66.4775 227.629C67.008 226.916 67.4565 226.167 67.8248 225.394C73.1452 227.177 79.2303 225.451 82.7607 220.704C86.5329 215.631 86.1625 208.759 82.2448 204.134Z" fill="#979797" fill-opacity="0.7"/>
<path d="M693.405 149.402C695.632 143.91 693.976 137.401 688.999 133.699C685.01 130.733 679.908 130.328 675.662 132.196C675.237 131.731 674.761 131.3 674.237 130.91C670.596 128.202 665.723 128.327 662.257 130.898C661.696 130.159 661.023 129.485 660.241 128.904C655.788 125.592 649.493 126.518 646.182 130.971C645.516 131.866 645.022 132.835 644.693 133.839C640.038 133.208 635.191 135.06 632.19 139.096C627.795 145.005 629.023 153.358 634.932 157.753C636.881 159.202 639.095 160.04 641.346 160.3C641.509 160.679 641.691 161.052 641.89 161.416C639.648 162.128 637.904 164.08 637.577 166.566C637.126 169.992 639.538 173.135 642.964 173.585C644.142 173.74 645.287 173.557 646.299 173.11C647.092 175.19 648.972 176.78 651.333 177.091C653.812 177.417 656.143 176.244 657.413 174.273C657.892 174.761 658.415 175.218 658.981 175.639C664.89 180.034 673.243 178.806 677.638 172.897C678.168 172.183 678.617 171.434 678.985 170.661C684.305 172.444 690.39 170.718 693.921 165.971C697.693 160.899 697.323 154.026 693.405 149.402Z" fill="#979797" fill-opacity="0.7"/>
</svg>
