<svg width="315" height="271" viewBox="0 0 315 271" fill="none" xmlns="http://www.w3.org/2000/svg">
<g opacity="0.5">
<path d="M241.676 128.849H91.4601V205.215H241.676V128.849Z" fill="#2D2D2D"/>
<path d="M221.676 162.417H111.46C100.414 162.417 91.4601 171.372 91.4601 182.417V202C91.4601 213.046 100.414 222 111.46 222H221.676C232.722 222 241.676 213.046 241.676 202V182.417C241.676 171.372 232.722 162.417 221.676 162.417Z" fill="#2D2D2D"/>
<path d="M166.568 205.216C208.049 205.216 241.676 171.589 241.676 130.108C241.676 88.627 208.049 55 166.568 55C125.087 55 91.4601 88.627 91.4601 130.108C91.4601 171.589 125.087 205.216 166.568 205.216Z" fill="#2D2D2D"/>
<path d="M135.408 122.834C146.945 122.834 156.297 113.481 156.297 101.945C156.297 90.4078 146.945 81.0553 135.408 81.0553C123.871 81.0553 114.518 90.4078 114.518 101.945C114.518 113.481 123.871 122.834 135.408 122.834Z" fill="white"/>
<path d="M135.414 112.396C141.182 112.396 145.858 107.72 145.858 101.952C145.858 96.1839 141.182 91.5079 135.414 91.5079C129.646 91.5079 124.97 96.1839 124.97 101.952C124.97 107.72 129.646 112.396 135.414 112.396Z" fill="#231F20"/>
<path d="M199.013 122.834C210.55 122.834 219.903 113.481 219.903 101.945C219.903 90.4078 210.55 81.0553 199.013 81.0553C187.476 81.0553 178.124 90.4078 178.124 101.945C178.124 113.481 187.476 122.834 199.013 122.834Z" fill="white"/>
<path d="M199.02 112.396C204.788 112.396 209.464 107.72 209.464 101.952C209.464 96.1839 204.788 91.5079 199.02 91.5079C193.252 91.5079 188.576 96.1839 188.576 101.952C188.576 107.72 193.252 112.396 199.02 112.396Z" fill="#231F20"/>
<path d="M167.204 117.165C149.005 117.165 134.251 130.784 134.251 147.582L167.205 204.166V117.165H167.204Z" fill="#C7EAFB"/>
<path d="M200.155 147.582H200.154C200.154 130.784 185.401 117.165 167.202 117.165V204.166L200.156 147.582H200.155Z" fill="#6E00FF"/>
<g clip-path="url(#clip0_1_903)">
<path d="M62.6589 114.901H80.3492V179.226C80.3492 184.076 76.3862 188.02 71.5015 188.02C66.6219 188.02 62.6537 184.081 62.6537 179.226V114.901H62.6589Z" fill="#D1D3D4"/>
<path d="M83.6931 112.83H59.3161C58.1686 112.83 57.2383 113.755 57.2383 114.896C57.2383 116.036 58.1686 116.961 59.3161 116.961H83.6931C84.8406 116.961 85.7709 116.036 85.7709 114.896C85.7709 113.755 84.8406 112.83 83.6931 112.83Z" fill="#D1D3D4"/>
<path d="M64.5599 141.01H78.4487V178.972C78.4487 182.782 75.3397 185.872 71.5069 185.872C67.6741 185.872 64.5651 182.782 64.5651 178.972V141.01H64.5599Z" fill="#00C800"/>
<path d="M65.988 110.496C67.8258 110.496 69.3156 109.015 69.3156 107.188C69.3156 105.361 67.8258 103.88 65.988 103.88C64.1501 103.88 62.6603 105.361 62.6603 107.188C62.6603 109.015 64.1501 110.496 65.988 110.496Z" fill="#00C800"/>
<path d="M76.6517 108.865C79.4962 108.865 81.8021 106.573 81.8021 103.746C81.8021 100.919 79.4962 98.6267 76.6517 98.6267C73.8072 98.6267 71.5013 100.919 71.5013 103.746C71.5013 106.573 73.8072 108.865 76.6517 108.865Z" fill="#00C800"/>
<path d="M66.0699 140.264C66.5444 140.264 66.9292 139.882 66.9292 139.41C66.9292 138.939 66.5444 138.556 66.0699 138.556C65.5953 138.556 65.2106 138.939 65.2106 139.41C65.2106 139.882 65.5953 140.264 66.0699 140.264Z" fill="#00C800"/>
<path d="M70.2628 138.551C71.2752 138.551 72.0959 137.735 72.0959 136.729C72.0959 135.722 71.2752 134.907 70.2628 134.907C69.2505 134.907 68.4297 135.722 68.4297 136.729C68.4297 137.735 69.2505 138.551 70.2628 138.551Z" fill="#00C800"/>
<path d="M68.2167 130.911C69.1744 130.911 69.9508 130.139 69.9508 129.187C69.9508 128.235 69.1744 127.463 68.2167 127.463C67.2589 127.463 66.4825 128.235 66.4825 129.187C66.4825 130.139 67.2589 130.911 68.2167 130.911Z" fill="#00C800"/>
<path d="M74.4549 123.892C75.591 123.892 76.5119 122.977 76.5119 121.847C76.5119 120.718 75.591 119.803 74.4549 119.803C73.3188 119.803 72.3979 120.718 72.3979 121.847C72.3979 122.977 73.3188 123.892 74.4549 123.892Z" fill="#00C800"/>
<path d="M68.0436 100.102C69.9648 100.102 71.5223 98.5537 71.5223 96.644C71.5223 94.7344 69.9648 93.1863 68.0436 93.1863C66.1223 93.1863 64.5649 94.7344 64.5649 96.644C64.5649 98.5537 66.1223 100.102 68.0436 100.102Z" fill="#00C800"/>
<path d="M77.199 126.056C77.5758 126.056 77.8812 125.752 77.8812 125.378C77.8812 125.003 77.5758 124.7 77.199 124.7C76.8223 124.7 76.5168 125.003 76.5168 125.378C76.5168 125.752 76.8223 126.056 77.199 126.056Z" fill="#00C800"/>
<path d="M75.236 139.804C75.6675 139.804 76.0172 139.456 76.0172 139.027C76.0172 138.598 75.6675 138.251 75.236 138.251C74.8046 138.251 74.4549 138.598 74.4549 139.027C74.4549 139.456 74.8046 139.804 75.236 139.804Z" fill="#00C800"/>
</g>
<path d="M226.448 92.3865L220.689 92.3865C220.689 92.3865 220.479 92.3865 220.395 92.3865C216.653 84.2098 208.414 78.4776 198.872 78.4776C186.429 78.4776 176.214 88.1717 175.289 100.395C173.86 100.1 159.245 100.142 157.815 100.479C156.975 88.1717 146.718 78.4355 134.233 78.4355C124.691 78.4355 116.451 84.1254 112.71 92.3022H99.8033C98.6263 92.3022 97.6594 93.2716 97.6594 94.4517C97.6594 95.6319 98.6263 96.6013 99.8033 96.6013H111.239C110.818 98.3716 110.608 100.226 110.608 102.123C110.608 115.189 121.201 125.81 134.233 125.81C146.255 125.81 156.218 116.748 157.689 105.115C159.077 104.314 173.944 104.23 175.373 104.862C176.76 116.622 186.765 125.81 198.872 125.81C211.903 125.81 222.497 115.189 222.497 102.123C222.497 100.226 222.286 98.3716 221.866 96.6013H233.848C235.025 96.6013 235.992 95.6319 235.992 94.4517C235.992 93.2716 235.025 92.3022 233.848 92.3022L226.448 92.3865ZM134.233 121.637C123.556 121.637 114.896 112.955 114.896 102.249C114.896 91.5436 123.556 82.861 134.233 82.861C144.91 82.861 153.57 91.5436 153.57 102.249C153.57 112.955 144.91 121.637 134.233 121.637ZM198.83 121.637C188.152 121.637 179.493 112.955 179.493 102.249C179.493 91.5436 188.152 82.861 198.83 82.861C209.507 82.861 218.167 91.5436 218.167 102.249C218.167 112.955 209.507 121.637 198.83 121.637Z" fill="#00C800"/>
<path d="M155.968 101.945C155.968 113.482 146.616 122.835 135.079 122.835C123.542 122.835 114.189 113.482 114.189 101.945C114.189 90.4085 123.542 81.056 135.079 81.056C146.616 81.056 155.968 90.4085 155.968 101.945Z" fill="#D4D4D4" fill-opacity="0.25"/>
<ellipse cx="199.016" cy="101.572" rx="20.5162" ry="20.5162" fill="#D4D4D4" fill-opacity="0.25"/>
<path d="M28 271C43.464 271 56 258.464 56 243C56 227.536 43.464 215 28 215C12.536 215 0 227.536 0 243C0 258.464 12.536 271 28 271Z" fill="#00C800"/>
<path d="M47 32C55.8366 32 63 24.8366 63 16C63 7.16344 55.8366 0 47 0C38.1634 0 31 7.16344 31 16C31 24.8366 38.1634 32 47 32Z" fill="#00C800"/>
<path d="M295 103C306.046 103 315 94.0457 315 83C315 71.9543 306.046 63 295 63C283.954 63 275 71.9543 275 83C275 94.0457 283.954 103 295 103Z" fill="#00C800"/>
</g>
<defs>
<clipPath id="clip0_1_903">
<rect width="28.5326" height="94.8291" fill="white" transform="translate(57.2383 93.1863)"/>
</clipPath>
</defs>
</svg>
