<svg width="727" height="304" viewBox="0 0 727 304" fill="none" xmlns="http://www.w3.org/2000/svg">
<path d="M370.164 229.321L328.69 269.266L208.856 144.842L250.33 104.898L370.164 229.321Z" fill="#231F20"/>
<path d="M362.751 228.074L404.225 268.019L524.059 143.595L482.585 103.651L362.751 228.074Z" fill="#231F20"/>
<path d="M465.104 168.682H286.104V259.682H465.104V168.682Z" fill="#2D2D2D"/>
<path d="M445.104 208.682H306.104C295.058 208.682 286.104 217.636 286.104 228.682V259.682C286.104 270.727 295.058 279.682 306.104 279.682H445.104C456.15 279.682 465.104 270.727 465.104 259.682V228.682C465.104 217.636 456.15 208.682 445.104 208.682Z" fill="#2D2D2D"/>
<path d="M375.604 259.682C425.033 259.682 465.104 219.611 465.104 170.182C465.104 120.752 425.033 80.6816 375.604 80.6816C326.175 80.6816 286.104 120.752 286.104 170.182C286.104 219.611 326.175 259.682 375.604 259.682Z" fill="#2D2D2D"/>
<path d="M338.469 161.515C352.216 161.515 363.361 150.371 363.361 136.623C363.361 122.876 352.216 111.731 338.469 111.731C324.721 111.731 313.577 122.876 313.577 136.623C313.577 150.371 324.721 161.515 338.469 161.515Z" fill="white"/>
<path d="M338.47 144.09C342.593 144.09 345.937 140.747 345.937 136.623C345.937 132.499 342.593 129.156 338.47 129.156C334.346 129.156 331.002 132.499 331.002 136.623C331.002 140.747 334.346 144.09 338.47 144.09Z" fill="#231F20"/>
<path d="M414.262 161.515C428.009 161.515 439.154 150.371 439.154 136.623C439.154 122.876 428.009 111.731 414.262 111.731C400.514 111.731 389.37 122.876 389.37 136.623C389.37 150.371 400.514 161.515 414.262 161.515Z" fill="white"/>
<path d="M413.542 144.09C417.666 144.09 421.009 140.747 421.009 136.623C421.009 132.499 417.666 129.156 413.542 129.156C409.418 129.156 406.075 132.499 406.075 136.623C406.075 140.747 409.418 144.09 413.542 144.09Z" fill="#231F20"/>
<path d="M350.923 180.205C345.637 201.237 357.091 222.243 376.505 227.122L451.468 205.471L350.923 180.203L350.923 180.205Z" fill="#C7EAFB"/>
<path d="M372.656 154.104L372.657 154.105C353.781 160.769 344.331 182.749 351.551 203.198L449.309 168.683L372.656 154.102L372.656 154.104Z" fill="#6E00FF"/>
<rect x="404.676" y="90.3438" width="55.0795" height="5.46365" rx="2.73182" transform="rotate(37.7566 404.676 90.3438)" fill="#D4D4D4"/>
<rect width="55.0794" height="5.46365" rx="2.73182" transform="matrix(-0.790619 0.612308 0.612308 0.790619 345.575 92.6508)" fill="#D4D4D4"/>
<path d="M444.716 69.0644C458.389 54.8695 480.979 54.4464 495.174 68.1179L470.418 93.8198L444.716 69.0644Z" fill="#6E00FF"/>
<path d="M459.627 83.5502C473.959 69.1269 497.268 69.0528 511.691 83.3831L485.743 109.499L459.627 83.5502Z" fill="#231F20"/>
<path d="M480.169 103.966C493.842 89.7709 516.432 89.3478 530.627 103.019L505.871 128.721L480.169 103.966Z" fill="#6E00FF"/>
<path d="M288.197 70.3115C274.524 56.1166 251.934 55.6935 237.739 69.365L262.495 95.0669L288.197 70.3115Z" fill="#6E00FF"/>
<path d="M273.288 84.7972C258.956 70.374 235.647 70.2999 221.224 84.6302L247.173 110.746L273.288 84.7972Z" fill="#231F20"/>
<path d="M252.746 105.213C239.073 91.018 216.483 90.5949 202.288 104.266L227.044 129.968L252.746 105.213Z" fill="#6E00FF"/>
<path d="M338.055 161.601C351.802 161.601 362.947 150.456 362.947 136.709C362.947 122.961 351.802 111.817 338.055 111.817C324.307 111.817 313.163 122.961 313.163 136.709C313.163 150.456 324.307 161.601 338.055 161.601Z" fill="white"/>
<path d="M338.054 144.81C342.377 144.81 345.881 141.306 345.881 136.983C345.881 132.661 342.377 129.156 338.054 129.156C333.731 129.156 330.227 132.661 330.227 136.983C330.227 141.306 333.731 144.81 338.054 144.81Z" fill="#231F20"/>
<path d="M445.567 97.1555H438.704C438.704 97.1555 438.454 97.1555 438.354 97.1555C433.895 87.412 424.077 80.5814 412.707 80.5814C397.879 80.5814 385.707 92.133 384.605 106.698C382.902 106.347 365.486 106.397 363.783 106.798C362.781 92.133 350.559 80.5313 335.682 80.5312C324.311 80.5312 314.493 87.3114 310.035 97.0549H294.655C293.252 97.0549 292.1 98.2101 292.1 99.6164C292.1 101.023 293.252 102.178 294.655 102.178H308.281C307.781 104.287 307.53 106.497 307.53 108.757C307.53 124.327 320.153 136.983 335.682 136.983C350.008 136.983 361.88 126.185 363.633 112.323C365.286 111.369 383.002 111.268 384.705 112.022C386.358 126.034 398.28 136.983 412.707 136.983C428.235 136.983 440.858 124.327 440.858 108.757C440.858 106.497 440.608 104.287 440.107 102.178H454.385C455.787 102.178 456.939 101.023 456.939 99.6164C456.939 98.2101 455.787 97.0549 454.385 97.0549L445.567 97.1555ZM335.682 132.011C322.958 132.011 312.639 121.665 312.639 108.908C312.639 96.151 322.958 85.8047 335.682 85.8047C348.405 85.8047 358.724 96.151 358.724 108.908C358.724 121.665 348.405 132.011 335.682 132.011ZM412.656 132.011C399.933 132.011 389.614 121.665 389.614 108.908C389.614 96.151 399.933 85.8047 412.656 85.8047C425.38 85.8047 435.699 96.151 435.699 108.908C435.699 121.665 425.38 132.011 412.656 132.011Z" fill="#00C800"/>
<path d="M361.581 108.546C361.581 122.294 350.437 133.438 336.689 133.438C322.942 133.438 311.797 122.294 311.797 108.546C311.797 94.799 322.942 83.6544 336.689 83.6544C350.437 83.6544 361.581 94.799 361.581 108.546Z" fill="#D4D4D4" fill-opacity="0.25"/>
<ellipse cx="412.88" cy="108.102" rx="24.4474" ry="24.4474" fill="#D4D4D4" fill-opacity="0.25"/>
<path d="M222.925 131.023C243.068 152.297 276.643 153.215 297.919 133.073C319.193 112.93 320.11 79.3544 299.968 58.0793L222.926 131.022L222.925 131.023Z" fill="#231F20"/>
<path d="M509.988 129.776C489.845 151.05 456.27 151.968 434.995 131.826C413.72 111.683 412.803 78.1073 432.945 56.8323L509.987 129.775L509.988 129.776Z" fill="#231F20"/>
<path fill-rule="evenodd" clip-rule="evenodd" d="M578.517 147.008C582.894 136.211 579.638 123.415 569.854 116.139C562.013 110.307 551.983 109.511 543.635 113.182C542.799 112.27 541.865 111.422 540.835 110.656C533.676 105.332 524.096 105.578 517.281 110.632C516.179 109.179 514.856 107.855 513.319 106.712C504.564 100.201 492.189 102.02 485.679 110.775C484.37 112.534 483.399 114.439 482.752 116.414C473.601 115.173 464.07 118.814 458.17 126.748C449.53 138.366 451.944 154.787 463.561 163.427C467.392 166.276 471.746 167.923 476.171 168.435C476.492 169.18 476.849 169.912 477.241 170.629C472.833 172.028 469.403 175.866 468.76 180.754C467.874 187.49 472.616 193.668 479.351 194.554C481.667 194.859 483.918 194.498 485.909 193.619C487.467 197.709 491.163 200.835 495.806 201.445C500.68 202.086 505.262 199.781 507.758 195.906C508.7 196.865 509.728 197.763 510.84 198.591C522.458 207.23 538.879 204.816 547.519 193.199C548.562 191.797 549.444 190.325 550.168 188.804C560.628 192.311 572.592 188.918 579.533 179.585C586.949 169.612 586.22 156.1 578.517 147.008Z" fill="#979797" fill-opacity="0.7"/>
<path fill-rule="evenodd" clip-rule="evenodd" d="M261.562 123.717C265.939 112.92 262.683 100.124 252.899 92.8471C245.058 87.0157 235.028 86.2199 226.679 89.8909C225.844 88.9781 224.91 88.1309 223.88 87.3649C216.721 82.0409 207.141 82.2869 200.326 87.3406C199.224 85.8874 197.901 84.5636 196.364 83.4206C187.609 76.9098 175.234 78.7289 168.724 87.4837C167.415 89.2427 166.443 91.1479 165.797 93.1223C156.646 91.8812 147.115 95.5226 141.214 103.457C132.575 115.074 134.989 131.496 146.606 140.136C150.437 142.985 154.791 144.632 159.216 145.143C159.537 145.889 159.894 146.621 160.286 147.337C155.878 148.737 152.448 152.575 151.805 157.463C150.919 164.198 155.661 170.377 162.396 171.263C164.712 171.567 166.963 171.206 168.954 170.328C170.512 174.417 174.208 177.543 178.851 178.154C183.725 178.795 188.307 176.489 190.803 172.614C191.745 173.573 192.773 174.472 193.885 175.299C205.503 183.939 221.924 181.525 230.564 169.908C231.607 168.505 232.489 167.033 233.213 165.513C243.673 169.02 255.637 165.627 262.578 156.293C269.994 146.321 269.265 132.808 261.562 123.717Z" fill="#979797" fill-opacity="0.7"/>
<path d="M524.963 71C542.084 71 555.963 57.1208 555.963 40C555.963 22.8792 542.084 9 524.963 9C507.842 9 493.963 22.8792 493.963 40C493.963 57.1208 507.842 71 524.963 71Z" fill="#00C800"/>
<path d="M633.627 172.382C658.48 172.382 678.627 152.235 678.627 127.382C678.627 102.53 658.48 82.3823 633.627 82.3823C608.775 82.3823 588.627 102.53 588.627 127.382C588.627 152.235 608.775 172.382 633.627 172.382Z" fill="#00C800"/>
<path d="M93.0999 99.1455C108.564 99.1455 121.1 86.6095 121.1 71.1455C121.1 55.6815 108.564 43.1455 93.0999 43.1455C77.636 43.1455 65.0999 55.6815 65.0999 71.1455C65.0999 86.6095 77.636 99.1455 93.0999 99.1455Z" fill="#00C800"/>
<path d="M84.2448 163.369C86.4717 157.877 84.8156 151.367 79.8386 147.666C75.85 144.7 70.7481 144.295 66.5016 146.162C66.0764 145.698 65.6012 145.267 65.0771 144.877C61.4356 142.169 56.5627 142.294 53.0964 144.865C52.5359 144.126 51.8628 143.452 51.081 142.871C46.6279 139.559 40.3332 140.484 37.0215 144.938C36.356 145.832 35.8616 146.801 35.5326 147.806C30.8781 147.175 26.0306 149.027 23.0294 153.063C18.6347 158.972 19.8626 167.325 25.7718 171.719C27.7205 173.169 29.935 174.006 32.1857 174.267C32.3491 174.646 32.5305 175.018 32.7298 175.383C30.4882 176.095 28.7438 178.047 28.4167 180.533C27.9661 183.959 30.3781 187.102 33.8042 187.552C34.982 187.707 36.1263 187.524 37.1393 187.077C37.9318 189.157 39.8116 190.747 42.1733 191.058C44.6523 191.384 46.9829 190.211 48.2527 188.24C48.7319 188.728 49.2549 189.185 49.8208 189.606C55.73 194 64.0829 192.773 68.4775 186.863C69.008 186.15 69.4565 185.401 69.8248 184.628C75.1452 186.411 81.2303 184.685 84.7607 179.938C88.5329 174.866 88.1625 167.993 84.2448 163.369Z" fill="#979797" fill-opacity="0.7"/>
<path d="M690.042 79.6197C692.269 74.1275 690.612 67.6183 685.635 63.917C681.647 60.9507 676.545 60.546 672.299 62.4135C671.873 61.9489 671.398 61.5179 670.874 61.1281C667.233 58.42 662.36 58.5452 658.893 61.1158C658.333 60.3766 657.66 59.7032 656.878 59.1218C652.425 55.8101 646.13 56.7353 642.818 61.1885C642.153 62.0833 641.659 63.0524 641.33 64.0568C636.675 63.4257 631.828 65.2779 628.826 69.3136C624.432 75.2229 625.659 83.5758 631.569 87.9704C633.517 89.4196 635.732 90.2574 637.983 90.5175C638.146 90.8967 638.327 91.2693 638.527 91.6338C636.285 92.3457 634.541 94.2978 634.214 96.7838C633.763 100.21 636.175 103.353 639.601 103.803C640.779 103.958 641.923 103.775 642.936 103.328C643.729 105.408 645.609 106.998 647.97 107.309C650.449 107.635 652.78 106.462 654.05 104.491C654.529 104.979 655.052 105.436 655.618 105.857C661.527 110.251 669.88 109.024 674.274 103.114C674.805 102.401 675.253 101.652 675.622 100.879C680.942 102.662 687.027 100.936 690.558 96.189C694.33 91.1168 693.96 84.2441 690.042 79.6197Z" fill="#979797" fill-opacity="0.7"/>
<path d="M616.325 260.641C618.552 255.148 616.896 248.639 611.919 244.938C607.93 241.972 602.828 241.567 598.582 243.434C598.157 242.97 597.681 242.539 597.157 242.149C593.516 239.441 588.643 239.566 585.177 242.137C584.616 241.398 583.943 240.724 583.161 240.143C578.708 236.831 572.413 237.756 569.102 242.209C568.436 243.104 567.942 244.073 567.613 245.078C562.958 244.447 558.111 246.299 555.109 250.335C550.715 256.244 551.943 264.597 557.852 268.991C559.801 270.441 562.015 271.278 564.266 271.539C564.429 271.918 564.611 272.29 564.81 272.655C562.568 273.367 560.824 275.319 560.497 277.805C560.046 281.231 562.458 284.374 565.884 284.824C567.062 284.979 568.206 284.796 569.219 284.349C570.012 286.429 571.892 288.019 574.253 288.33C576.732 288.656 579.063 287.483 580.333 285.512C580.812 286 581.335 286.457 581.901 286.878C587.81 291.272 596.163 290.045 600.558 284.135C601.088 283.422 601.537 282.673 601.905 281.9C607.225 283.683 613.31 281.957 616.841 277.21C620.613 272.138 620.243 265.265 616.325 260.641Z" fill="#979797" fill-opacity="0.7"/>
</svg>
