<svg width="683" height="199" viewBox="0 0 683 199" fill="none" xmlns="http://www.w3.org/2000/svg">
<path d="M416.781 88H237.781V179H416.781V88Z" fill="#2D2D2D"/>
<path d="M396.781 128H257.781C246.736 128 237.781 136.954 237.781 148V179C237.781 190.046 246.736 199 257.781 199H396.781C407.827 199 416.781 190.046 416.781 179V148C416.781 136.954 407.827 128 396.781 128Z" fill="#2D2D2D"/>
<path d="M327.281 179C376.711 179 416.781 138.929 416.781 89.5C416.781 40.0705 376.711 0 327.281 0C277.852 0 237.781 40.0705 237.781 89.5C237.781 138.929 277.852 179 327.281 179Z" fill="#2D2D2D"/>
<path d="M290.146 80.8335C303.893 80.8335 315.038 69.6889 315.038 55.9414C315.038 42.1939 303.893 31.0493 290.146 31.0493C276.398 31.0493 265.254 42.1939 265.254 55.9414C265.254 69.6889 276.398 80.8335 290.146 80.8335Z" fill="white"/>
<path d="M290.154 68.3947C297.027 68.3947 302.599 62.8228 302.599 55.9494C302.599 49.0761 297.027 43.5042 290.154 43.5042C283.281 43.5042 277.709 49.0761 277.709 55.9494C277.709 62.8228 283.281 68.3947 290.154 68.3947Z" fill="#231F20"/>
<path d="M365.939 80.8335C379.686 80.8335 390.831 69.6889 390.831 55.9414C390.831 42.1939 379.686 31.0493 365.939 31.0493C352.191 31.0493 341.047 42.1939 341.047 55.9414C341.047 69.6889 352.191 80.8335 365.939 80.8335Z" fill="white"/>
<path d="M365.947 68.3947C372.82 68.3947 378.392 62.8228 378.392 55.9494C378.392 49.0761 372.82 43.5042 365.947 43.5042C359.074 43.5042 353.502 49.0761 353.502 55.9494C353.502 62.8228 359.074 68.3947 365.947 68.3947Z" fill="#231F20"/>
<path d="M328.035 74.0776C306.349 74.0776 288.768 90.3061 288.768 110.324L328.036 177.75V74.0776H328.035Z" fill="#C7EAFB"/>
<path d="M367.301 110.324H367.299C367.299 90.3061 349.719 74.0776 328.033 74.0776V177.75L367.302 110.324H367.301Z" fill="#6E00FF"/>
<g clip-path="url(#clip0_1_1097)">
<path d="M203.459 71.3789H224.539V148.03C224.539 153.81 219.817 158.51 213.996 158.51C208.182 158.51 203.453 153.816 203.453 148.03V71.3789H203.459Z" fill="#D1D3D4"/>
<path d="M228.524 68.9121H199.476C198.109 68.9121 197 70.014 197 71.3732C197 72.7324 198.109 73.8343 199.476 73.8343H228.524C229.891 73.8343 231 72.7324 231 71.3732C231 70.014 229.891 68.9121 228.524 68.9121Z" fill="#D1D3D4"/>
<path d="M205.725 102.491H222.275V147.728C222.275 152.268 218.57 155.95 214.003 155.95C209.436 155.95 205.731 152.268 205.731 147.728V102.491H205.725Z" fill="#00C800"/>
<path d="M207.426 66.1299C209.616 66.1299 211.392 64.3653 211.392 62.1885C211.392 60.0117 209.616 58.2471 207.426 58.2471C205.236 58.2471 203.461 60.0117 203.461 62.1885C203.461 64.3653 205.236 66.1299 207.426 66.1299Z" fill="#00C800"/>
<path d="M220.133 64.1874C223.523 64.1874 226.271 61.4562 226.271 58.0871C226.271 54.718 223.523 51.9868 220.133 51.9868C216.744 51.9868 213.996 54.718 213.996 58.0871C213.996 61.4562 216.744 64.1874 220.133 64.1874Z" fill="#00C800"/>
<path d="M207.524 101.603C208.089 101.603 208.548 101.147 208.548 100.585C208.548 100.023 208.089 99.5674 207.524 99.5674C206.958 99.5674 206.5 100.023 206.5 100.585C206.5 101.147 206.958 101.603 207.524 101.603Z" fill="#00C800"/>
<path d="M212.52 99.5611C213.727 99.5611 214.705 98.589 214.705 97.3899C214.705 96.1908 213.727 95.2188 212.52 95.2188C211.314 95.2188 210.336 96.1908 210.336 97.3899C210.336 98.589 211.314 99.5611 212.52 99.5611Z" fill="#00C800"/>
<path d="M210.082 90.4571C211.223 90.4571 212.148 89.5375 212.148 88.4031C212.148 87.2687 211.223 86.3491 210.082 86.3491C208.941 86.3491 208.016 87.2687 208.016 88.4031C208.016 89.5375 208.941 90.4571 210.082 90.4571Z" fill="#00C800"/>
<path d="M217.516 82.0935C218.869 82.0935 219.967 81.0027 219.967 79.6571C219.967 78.3115 218.869 77.2207 217.516 77.2207C216.162 77.2207 215.064 78.3115 215.064 79.6571C215.064 81.0027 216.162 82.0935 217.516 82.0935Z" fill="#00C800"/>
<path d="M209.876 53.7445C212.165 53.7445 214.021 51.8998 214.021 49.6242C214.021 47.3486 212.165 45.5039 209.876 45.5039C207.586 45.5039 205.73 47.3486 205.73 49.6242C205.73 51.8998 207.586 53.7445 209.876 53.7445Z" fill="#00C800"/>
<path d="M220.786 84.6717C221.235 84.6717 221.598 84.3099 221.598 83.8637C221.598 83.4174 221.235 83.0557 220.786 83.0557C220.337 83.0557 219.973 83.4174 219.973 83.8637C219.973 84.3099 220.337 84.6717 220.786 84.6717Z" fill="#00C800"/>
<path d="M218.446 101.054C218.961 101.054 219.377 100.64 219.377 100.129C219.377 99.6178 218.961 99.2036 218.446 99.2036C217.932 99.2036 217.516 99.6178 217.516 100.129C217.516 100.64 217.932 101.054 218.446 101.054Z" fill="#00C800"/>
</g>
<path d="M492 105.504C509.121 105.504 523 91.6247 523 74.5039C523 57.3831 509.121 43.5039 492 43.5039C474.879 43.5039 461 57.3831 461 74.5039C461 91.6247 474.879 105.504 492 105.504Z" fill="#00C800"/>
<path d="M638 162.504C662.853 162.504 683 142.357 683 117.504C683 92.6511 662.853 72.5039 638 72.5039C613.147 72.5039 593 92.6511 593 117.504C593 142.357 613.147 162.504 638 162.504Z" fill="#00C800"/>
<path d="M28 145.504C43.464 145.504 56 132.968 56 117.504C56 102.04 43.464 89.5039 28 89.5039C12.536 89.5039 0 102.04 0 117.504C0 132.968 12.536 145.504 28 145.504Z" fill="#00C800"/>
<path d="M398.635 44.5505H391.772C391.772 44.5505 391.522 44.5505 391.421 44.5505C386.963 34.807 377.145 27.9764 365.774 27.9764C350.947 27.9764 338.775 39.528 337.673 54.0931C335.97 53.7415 318.554 53.7917 316.851 54.1935C315.849 39.528 303.627 27.9263 288.75 27.9263C277.379 27.9263 267.561 34.7064 263.103 44.45H247.723C246.32 44.45 245.168 45.6052 245.168 47.0114C245.168 48.4177 246.32 49.5729 247.723 49.5729H261.349C260.848 51.6824 260.598 53.8922 260.598 56.1523C260.598 71.7219 273.221 84.3784 288.75 84.3784C303.076 84.3784 314.948 73.5801 316.701 59.7182C318.354 58.7639 336.07 58.6635 337.773 59.4169C339.426 73.4295 351.348 84.3784 365.774 84.3784C381.303 84.3784 393.926 71.7219 393.926 56.1523C393.926 53.8922 393.675 51.6824 393.175 49.5729H407.453C408.855 49.5729 410.007 48.4177 410.007 47.0114C410.007 45.6052 408.855 44.45 407.453 44.45L398.635 44.5505ZM288.75 79.4062C276.026 79.4062 265.707 69.06 265.707 56.303C265.707 43.546 276.026 33.1998 288.75 33.1998C301.473 33.1998 311.792 43.546 311.792 56.303C311.792 69.06 301.473 79.4062 288.75 79.4062ZM365.724 79.4062C353.001 79.4062 342.682 69.06 342.682 56.303C342.682 43.546 353.001 33.1998 365.724 33.1998C378.448 33.1998 388.767 43.546 388.767 56.303C388.767 69.06 378.448 79.4062 365.724 79.4062Z" fill="#00C800"/>
<path d="M314.649 55.9415C314.649 69.689 303.505 80.8335 289.757 80.8335C276.01 80.8335 264.865 69.689 264.865 55.9415C264.865 42.194 276.01 31.0494 289.757 31.0494C303.505 31.0494 314.649 42.194 314.649 55.9415Z" fill="#D4D4D4" fill-opacity="0.25"/>
<ellipse cx="365.947" cy="55.4968" rx="24.4474" ry="24.4474" fill="#D4D4D4" fill-opacity="0.25"/>
<defs>
<clipPath id="clip0_1_1097">
<rect width="34" height="113" fill="white" transform="translate(197 45.5039)"/>
</clipPath>
</defs>
</svg>
