<svg width="700" height="304" viewBox="0 0 700 304" fill="none" xmlns="http://www.w3.org/2000/svg">
<path d="M457.117 150H278.117V241H457.117V150Z" fill="#2D2D2D"/>
<path d="M437.117 190H298.117C287.071 190 278.117 198.954 278.117 210V241C278.117 252.046 287.071 261 298.117 261H437.117C448.162 261 457.117 252.046 457.117 241V210C457.117 198.954 448.162 190 437.117 190Z" fill="#2D2D2D"/>
<path d="M367.617 241C417.046 241 457.117 200.929 457.117 151.5C457.117 102.071 417.046 62 367.617 62C318.187 62 278.117 102.071 278.117 151.5C278.117 200.929 318.187 241 367.617 241Z" fill="#2D2D2D"/>
<path d="M330.481 142.833C344.229 142.833 355.373 131.689 355.373 117.941C355.373 104.194 344.229 93.0493 330.481 93.0493C316.734 93.0493 305.589 104.194 305.589 117.941C305.589 131.689 316.734 142.833 330.481 142.833Z" fill="white"/>
<path d="M330.482 125.408C334.606 125.408 337.949 122.065 337.949 117.941C337.949 113.817 334.606 110.474 330.482 110.474C326.358 110.474 323.015 113.817 323.015 117.941C323.015 122.065 326.358 125.408 330.482 125.408Z" fill="#231F20"/>
<path d="M406.274 142.833C420.022 142.833 431.166 131.689 431.166 117.941C431.166 104.194 420.022 93.0493 406.274 93.0493C392.527 93.0493 381.382 104.194 381.382 117.941C381.382 131.689 392.527 142.833 406.274 142.833Z" fill="white"/>
<path d="M405.554 125.409C409.678 125.409 413.022 122.066 413.022 117.942C413.022 113.818 409.678 110.475 405.554 110.475C401.431 110.475 398.087 113.818 398.087 117.942C398.087 122.066 401.431 125.409 405.554 125.409Z" fill="#231F20"/>
<path d="M341.191 163.149C335.906 184.181 347.36 205.188 366.774 210.067L441.737 188.415L341.191 163.148L341.191 163.149Z" fill="#C7EAFB"/>
<path d="M370.997 135.636L370.997 135.637C351.126 138.052 337.137 157.462 339.753 178.99L442.668 166.481L370.997 135.634L370.997 135.636Z" fill="#6E00FF"/>
<rect x="389.062" y="76.332" width="55.0795" height="5.46365" rx="2.73182" transform="rotate(10.1297 389.062 76.332)" fill="#D4D4D4"/>
<rect width="55.0794" height="5.46365" rx="2.73182" transform="matrix(-0.790619 0.612308 0.612308 0.790619 337.585 73.9692)" fill="#D4D4D4"/>
<path d="M330.065 142.92C343.813 142.92 354.957 131.775 354.957 118.028C354.957 104.28 343.813 93.1357 330.065 93.1357C316.318 93.1357 305.173 104.28 305.173 118.028C305.173 131.775 316.318 142.92 330.065 142.92Z" fill="white"/>
<path d="M330.065 126.129C334.388 126.129 337.892 122.624 337.892 118.302C337.892 113.979 334.388 110.475 330.065 110.475C325.742 110.475 322.238 113.979 322.238 118.302C322.238 122.624 325.742 126.129 330.065 126.129Z" fill="#231F20"/>
<path d="M439.001 106.34H432.139C432.139 106.34 431.888 106.34 431.788 106.34C427.33 96.5961 417.512 89.7655 406.141 89.7655C391.314 89.7655 379.142 101.317 378.04 115.882C376.337 115.531 358.921 115.581 357.218 115.983C356.216 101.317 343.994 89.7153 329.116 89.7153C317.745 89.7153 307.927 96.4955 303.469 106.239H288.089C286.687 106.239 285.535 107.394 285.535 108.801C285.535 110.207 286.687 111.362 288.089 111.362H301.716C301.215 113.471 300.965 115.681 300.965 117.941C300.965 133.511 313.588 146.167 329.116 146.167C343.443 146.167 355.314 135.369 357.067 121.507C358.721 120.553 376.437 120.453 378.14 121.206C379.793 135.219 391.715 146.167 406.141 146.167C421.67 146.167 434.293 133.511 434.293 117.941C434.293 115.681 434.042 113.471 433.541 111.362H447.819C449.222 111.362 450.374 110.207 450.374 108.801C450.374 107.394 449.222 106.239 447.819 106.239L439.001 106.34ZM329.116 141.195C316.393 141.195 306.074 130.849 306.074 118.092C306.074 105.335 316.393 94.9888 329.116 94.9888C341.84 94.9888 352.158 105.335 352.158 118.092C352.158 130.849 341.84 141.195 329.116 141.195ZM406.091 141.195C393.368 141.195 383.049 130.849 383.049 118.092C383.049 105.335 393.368 94.9888 406.091 94.9888C418.814 94.9888 429.133 105.335 429.133 118.092C429.133 130.849 418.814 141.195 406.091 141.195Z" fill="#00C800"/>
<path d="M355.016 117.731C355.016 131.478 343.871 142.623 330.124 142.623C316.376 142.623 305.232 131.478 305.232 117.731C305.232 103.983 316.376 92.8385 330.124 92.8385C343.871 92.8385 355.016 103.983 355.016 117.731Z" fill="#D4D4D4" fill-opacity="0.25"/>
<ellipse cx="406.314" cy="117.286" rx="24.4474" ry="24.4474" fill="#D4D4D4" fill-opacity="0.25"/>
<path d="M520.449 62C537.57 62 551.449 48.1208 551.449 31C551.449 13.8792 537.57 0 520.449 0C503.328 0 489.449 13.8792 489.449 31C489.449 48.1208 503.328 62 520.449 62Z" fill="#00C800"/>
<path d="M629.113 198.245C653.966 198.245 674.113 178.098 674.113 153.245C674.113 128.392 653.966 108.245 629.113 108.245C604.26 108.245 584.113 128.392 584.113 153.245C584.113 178.098 604.26 198.245 629.113 198.245Z" fill="#00C800"/>
<path d="M80.6168 111.076C96.0807 111.076 108.617 98.5401 108.617 83.0762C108.617 67.6122 96.0807 55.0762 80.6168 55.0762C65.1528 55.0762 52.6168 67.6122 52.6168 83.0762C52.6168 98.5401 65.1528 111.076 80.6168 111.076Z" fill="#00C800"/>
<path fill-rule="evenodd" clip-rule="evenodd" d="M309.506 245.295C312.311 238.375 310.223 230.173 303.952 225.509C298.926 221.771 292.498 221.261 287.146 223.614C286.611 223.029 286.012 222.486 285.352 221.995C280.763 218.582 274.622 218.74 270.254 221.98C269.547 221.048 268.699 220.199 267.714 219.466C262.102 215.293 254.169 216.459 249.996 222.071C249.157 223.199 248.534 224.42 248.119 225.686C242.253 224.89 236.143 227.224 232.361 232.31C226.822 239.757 228.37 250.284 235.817 255.822C238.273 257.649 241.064 258.704 243.9 259.032C244.106 259.51 244.335 259.979 244.586 260.438C241.761 261.336 239.563 263.796 239.151 266.928C238.583 271.246 241.623 275.206 245.94 275.774C247.425 275.97 248.867 275.738 250.143 275.176C251.142 277.797 253.511 279.8 256.487 280.192C259.611 280.603 262.549 279.125 264.149 276.64C264.753 277.255 265.412 277.832 266.125 278.362C273.572 283.9 284.099 282.353 289.637 274.906C290.305 274.007 290.87 273.063 291.335 272.089C298.04 274.337 305.709 272.162 310.158 266.179C314.913 259.786 314.445 251.123 309.506 245.295Z" fill="#979797" fill-opacity="0.7"/>
<path fill-rule="evenodd" clip-rule="evenodd" d="M74.3671 194.134C76.594 188.642 74.9379 182.133 69.9609 178.432C65.9723 175.465 60.8704 175.061 56.6239 176.928C56.1987 176.464 55.7235 176.033 55.1994 175.643C51.5579 172.935 46.6849 173.06 43.2187 175.63C42.6582 174.891 41.9851 174.218 41.2033 173.636C36.7502 170.325 30.4555 171.25 27.1438 175.703C26.4783 176.598 25.9839 177.567 25.6549 178.571C21.0004 177.94 16.1529 179.793 13.1516 183.828C8.75702 189.738 9.98486 198.09 15.8941 202.485C17.8428 203.934 20.0573 204.772 22.3079 205.032C22.4714 205.411 22.6528 205.784 22.8521 206.148C20.6105 206.86 18.866 208.812 18.539 211.298C18.0884 214.725 20.5004 217.867 23.9264 218.318C25.1043 218.473 26.2486 218.289 27.2616 217.843C28.0541 219.923 29.9339 221.513 32.2956 221.823C34.7746 222.149 37.1052 220.977 38.375 219.006C38.8542 219.493 39.3772 219.951 39.9431 220.371C45.8523 224.766 54.2052 223.538 58.5998 217.629C59.1303 216.916 59.5788 216.167 59.9471 215.394C65.2675 217.177 71.3526 215.451 74.883 210.704C78.6552 205.631 78.2848 198.759 74.3671 194.134Z" fill="#979797" fill-opacity="0.7"/>
<path fill-rule="evenodd" clip-rule="evenodd" d="M685.527 139.402C687.754 133.91 686.098 127.401 681.121 123.699C677.132 120.733 672.03 120.328 667.784 122.196C667.359 121.731 666.884 121.3 666.359 120.91C662.718 118.202 657.845 118.327 654.379 120.898C653.818 120.159 653.145 119.485 652.363 118.904C647.91 115.592 641.616 116.518 638.304 120.971C637.638 121.865 637.144 122.835 636.815 123.839C632.161 123.208 627.313 125.06 624.312 129.096C619.917 135.005 621.145 143.358 627.054 147.753C629.003 149.202 631.217 150.04 633.468 150.3C633.631 150.679 633.813 151.052 634.012 151.416C631.771 152.128 630.026 154.08 629.699 156.566C629.248 159.992 631.66 163.135 635.087 163.585C636.264 163.74 637.409 163.557 638.422 163.11C639.214 165.19 641.094 166.78 643.456 167.091C645.935 167.417 648.265 166.244 649.535 164.273C650.014 164.761 650.537 165.218 651.103 165.639C657.012 170.034 665.365 168.806 669.76 162.897C670.29 162.183 670.739 161.434 671.107 160.661C676.428 162.444 682.513 160.718 686.043 155.971C689.815 150.899 689.445 144.026 685.527 139.402Z" fill="#979797" fill-opacity="0.7"/>
</svg>
