<svg width="776" height="392" viewBox="0 0 776 392" fill="none" xmlns="http://www.w3.org/2000/svg">
<path d="M312.862 251.565C323.553 290.855 300.371 331.371 261.083 342.063C221.794 352.753 181.278 329.572 170.585 290.284L312.863 251.567L312.862 251.565Z" fill="#231F20"/>
<path d="M170.583 290.282C176.998 313.854 201.308 327.765 224.881 321.35L213.265 278.667L170.581 290.283L170.583 290.282Z" fill="#6E00FF"/>
<path d="M352.905 286.482L341.293 243.797L213.24 278.631L224.852 321.316L352.905 286.482Z" fill="#231F20"/>
<path d="M361.489 200.977C325.087 228.47 273.291 221.247 245.798 184.845C218.305 148.442 225.529 96.647 261.931 69.1539L361.489 200.977Z" fill="#231F20"/>
<path d="M261.929 69.1558C240.088 85.6518 235.753 116.729 252.249 138.569L291.796 108.7L261.927 69.1541L261.929 69.1558Z" fill="#6E00FF"/>
<path d="M341.86 257.188L381.408 227.324L291.814 108.678L252.266 138.543L341.86 257.188Z" fill="#231F20"/>
<path d="M309.423 221.283C316.356 263.008 288.152 302.456 246.423 309.388C204.698 316.322 165.25 288.118 158.317 246.389L309.421 221.281L309.423 221.283Z" fill="#231F20"/>
<path d="M392.506 254.058C388.346 229.022 364.679 212.099 339.642 216.259L347.174 261.59L392.506 254.058Z" fill="#231F20"/>
<path d="M158.317 246.392C162.478 271.429 186.145 288.352 211.181 284.192L203.649 238.86L158.317 246.392Z" fill="#6E00FF"/>
<path d="M347.194 261.615L339.658 216.283L203.666 238.889L211.201 284.221L347.194 261.615Z" fill="#231F20"/>
<path d="M319.731 204.599C312.005 249.318 269.489 279.307 224.769 271.582C180.049 263.856 150.06 221.339 157.786 176.62L319.731 204.599Z" fill="#231F20"/>
<path d="M392.31 267.174C396.945 240.342 378.952 214.833 352.119 210.196L343.726 258.779L392.309 267.172L392.31 267.174Z" fill="#231F20"/>
<path d="M157.786 176.62C153.151 203.452 171.144 228.961 197.977 233.598L206.37 185.015L157.787 176.622L157.786 176.62Z" fill="#6E00FF"/>
<path d="M343.728 258.78L352.121 210.196L206.371 185.016L197.977 233.599L343.728 258.78Z" fill="#231F20"/>
<path d="M334.804 206.842C307.423 243.328 255.65 250.709 219.164 223.328C182.678 195.947 175.297 144.174 202.678 107.688L334.804 206.842Z" fill="#231F20"/>
<path d="M371.121 296.058C387.55 274.166 383.121 243.101 361.229 226.672L331.483 266.311L371.121 296.058Z" fill="#231F20"/>
<path d="M202.676 107.688C186.247 129.58 190.676 160.644 212.567 177.073L242.314 137.435L202.676 107.688Z" fill="#6E00FF"/>
<path d="M331.48 266.338L361.223 226.699L242.303 137.47L212.56 177.109L331.48 266.338Z" fill="#231F20"/>
<path d="M473.356 251.565C462.666 290.854 485.848 331.37 525.136 342.062C564.425 352.753 604.941 329.571 615.633 290.283L473.355 251.566L473.356 251.565Z" fill="#231F20"/>
<path d="M615.635 290.281C609.221 313.854 584.91 327.764 561.338 321.35L572.954 278.666L615.637 290.282L615.635 290.281Z" fill="#6E00FF"/>
<path d="M433.314 286.482L444.926 243.797L572.978 278.631L561.367 321.316L433.314 286.482Z" fill="#231F20"/>
<path d="M424.729 200.977C461.132 228.47 512.927 221.247 540.42 184.844C567.913 148.442 560.69 96.6465 524.287 69.1534L424.729 200.977Z" fill="#231F20"/>
<path d="M524.29 69.1553C546.13 85.6513 550.465 116.728 533.969 138.568L494.423 108.7L524.291 69.1536L524.29 69.1553Z" fill="#6E00FF"/>
<path d="M444.358 257.188L404.81 227.324L494.405 108.678L533.953 138.543L444.358 257.188Z" fill="#231F20"/>
<path d="M476.796 221.283C469.863 263.008 498.067 302.456 539.795 309.388C581.521 316.322 620.969 288.118 627.901 246.389L476.797 221.281L476.796 221.283Z" fill="#231F20"/>
<path d="M393.713 254.058C397.873 229.022 421.54 212.099 446.576 216.259L439.044 261.59L393.713 254.058Z" fill="#231F20"/>
<path d="M627.901 246.392C623.741 271.429 600.074 288.352 575.038 284.192L582.57 238.86L627.901 246.392Z" fill="#6E00FF"/>
<path d="M439.025 261.615L446.56 216.283L582.553 238.889L575.018 284.221L439.025 261.615Z" fill="#231F20"/>
<path d="M466.488 204.598C474.214 249.318 516.73 279.307 561.45 271.581C606.17 263.855 636.159 221.339 628.433 176.619L466.488 204.598Z" fill="#231F20"/>
<path d="M393.909 267.173C389.274 240.342 407.267 214.832 434.1 210.196L442.493 258.778L393.91 267.171L393.909 267.173Z" fill="#231F20"/>
<path d="M628.433 176.62C633.068 203.451 615.075 228.961 588.242 233.597L579.849 185.015L628.432 176.622L628.433 176.62Z" fill="#6E00FF"/>
<path d="M442.491 258.779L434.098 210.196L579.848 185.015L588.242 233.599L442.491 258.779Z" fill="#231F20"/>
<path d="M451.415 206.842C478.796 243.327 530.569 250.709 567.055 223.328C603.54 195.947 610.922 144.174 583.541 107.688L451.415 206.842Z" fill="#231F20"/>
<path d="M415.098 296.057C398.669 274.165 403.097 243.101 424.989 226.672L454.736 266.31L415.098 296.057Z" fill="#231F20"/>
<path d="M583.543 107.687C599.971 129.579 595.543 160.644 573.651 177.072L543.904 137.434L583.543 107.687Z" fill="#6E00FF"/>
<path d="M454.739 266.338L424.996 226.698L543.916 137.469L573.659 177.109L454.739 266.338Z" fill="#231F20"/>
<path d="M475.973 190.382H296.973V281.382H475.973V190.382Z" fill="#2D2D2D"/>
<path d="M455.973 230.382H316.973C305.927 230.382 296.973 239.337 296.973 250.382V281.382C296.973 292.428 305.927 301.382 316.973 301.382H455.973C467.018 301.382 475.973 292.428 475.973 281.382V250.382C475.973 239.337 467.018 230.382 455.973 230.382Z" fill="#2D2D2D"/>
<path d="M386.473 281.382C435.902 281.382 475.973 241.312 475.973 191.882C475.973 142.453 435.902 102.382 386.473 102.382C337.043 102.382 296.973 142.453 296.973 191.882C296.973 241.312 337.043 281.382 386.473 281.382Z" fill="#2D2D2D"/>
<path d="M349.338 183.216C363.085 183.216 374.23 172.071 374.23 158.324C374.23 144.576 363.085 133.432 349.338 133.432C335.59 133.432 324.445 144.576 324.445 158.324C324.445 172.071 335.59 183.216 349.338 183.216Z" fill="white"/>
<path d="M425.13 183.216C438.878 183.216 450.023 172.071 450.023 158.324C450.023 144.576 438.878 133.432 425.13 133.432C411.383 133.432 400.238 144.576 400.238 158.324C400.238 172.071 411.383 183.216 425.13 183.216Z" fill="white"/>
<path d="M349.338 161.183C352.594 161.183 355.234 158.543 355.234 155.287C355.234 152.03 352.594 149.391 349.338 149.391C346.081 149.391 343.442 152.03 343.442 155.287C343.442 158.543 346.081 161.183 349.338 161.183Z" fill="#231F20"/>
<path d="M424.094 170.777C427.35 170.777 429.99 168.137 429.99 164.881C429.99 161.625 427.35 158.985 424.094 158.985C420.837 158.985 418.197 161.625 418.197 164.881C418.197 168.137 420.837 170.777 424.094 170.777Z" fill="#231F20"/>
<path fill-rule="evenodd" clip-rule="evenodd" d="M414.53 97.5286C421.766 95.3398 429.777 95.5465 437.306 98.6678C444.827 101.786 450.63 107.299 454.196 113.956C454.294 104.794 448.905 96.0634 439.922 92.3396C430.935 88.6137 420.942 90.9758 414.53 97.5286Z" fill="#BDBDBD"/>
<path fill-rule="evenodd" clip-rule="evenodd" d="M358.824 95.8491C351.33 94.0943 343.2 94.8686 335.797 98.6182C328.982 102.069 323.836 107.508 320.705 113.871C320.56 105.293 325.216 96.9706 333.384 92.8338C341.95 88.4956 351.94 89.9956 358.824 95.8491Z" fill="#BDBDBD"/>
<path d="M383.573 207.03C364.45 207.03 348.947 214.737 348.947 224.245L383.574 256.268V207.03H383.573Z" fill="#635F5F"/>
<path d="M418.196 224.245H418.195C418.195 214.737 402.693 207.03 383.57 207.03V256.268L418.197 224.245H418.196Z" fill="#635F5F"/>
<mask id="mask0_1_799" style="mask-type:alpha" maskUnits="userSpaceOnUse" x="349" y="158" width="72" height="36">
<path d="M349.01 193.484H420.209V158.324H349.01V193.484Z" fill="#635F5F"/>
</mask>
<g mask="url(#mask0_1_799)">
<path d="M383.575 210.333C364.452 210.333 348.949 202.625 348.949 193.118L383.576 161.094V210.333H383.575Z" fill="#635F5F"/>
<path d="M418.198 193.118H418.197C418.197 202.625 402.695 210.333 383.572 210.333V161.094L418.199 193.118H418.198Z" fill="#635F5F"/>
</g>
<rect x="341.397" y="189.702" width="86.4238" height="37.6765" rx="18.8383" fill="#484545"/>
<mask id="mask1_1_799" style="mask-type:alpha" maskUnits="userSpaceOnUse" x="341" y="189" width="87" height="39">
<rect x="341.238" y="189.702" width="86.4238" height="37.6765" rx="18.8383" fill="#B3B3B3"/>
</mask>
<g mask="url(#mask1_1_799)">
<ellipse cx="384.293" cy="226.137" rx="19.2524" ry="8.26721" fill="#353131"/>
</g>
<path d="M372.087 166.565C372.087 180.312 360.942 191.457 347.195 191.457C333.447 191.457 322.303 180.312 322.303 166.565C322.303 152.817 333.447 141.673 347.195 141.673C360.942 141.673 372.087 152.817 372.087 166.565Z" fill="#D4D4D4" fill-opacity="0.25"/>
<path d="M445.101 152.176C445.101 165.924 433.956 177.068 420.209 177.068C406.461 177.068 395.317 165.924 395.317 152.176C395.317 138.429 406.461 127.284 420.209 127.284C433.956 127.284 445.101 138.429 445.101 152.176Z" fill="#D4D4D4" fill-opacity="0.25"/>
<path d="M451.553 134.594L444.802 135.828C444.802 135.828 444.555 135.873 444.457 135.891C438.32 127.108 427.433 122.153 416.248 124.198C401.662 126.864 391.765 140.416 393.3 154.941C391.561 154.902 374.439 158.082 372.835 158.784C369.213 144.537 355.104 135.322 340.469 137.997C329.284 140.042 320.845 148.476 318.211 158.863L303.082 161.628C301.702 161.88 300.776 163.224 301.029 164.607C301.282 165.99 302.623 166.92 304.003 166.667L317.407 164.217C317.294 166.383 317.445 168.601 317.851 170.825C320.651 186.141 335.344 196.321 350.619 193.529C364.712 190.954 374.449 178.197 373.681 164.246C375.135 163.01 392.545 159.726 394.356 160.16C398.501 173.648 412.197 182.275 426.389 179.681C441.664 176.889 451.806 162.169 449.007 146.853C448.6 144.63 447.956 142.501 447.084 140.516L461.13 137.949C462.509 137.697 463.435 136.353 463.182 134.97C462.93 133.587 461.588 132.657 460.209 132.91L451.553 134.594ZM349.725 188.638C337.209 190.926 325.198 182.603 322.904 170.054C320.611 157.505 328.901 145.472 341.417 143.185C353.933 140.897 365.944 149.22 368.238 161.769C370.531 174.318 362.241 186.351 349.725 188.638ZM425.445 174.799C412.929 177.086 400.919 168.764 398.625 156.215C396.331 143.666 404.622 131.633 417.138 129.345C429.654 127.058 441.665 135.38 443.958 147.929C446.252 160.478 437.961 172.511 425.445 174.799Z" fill="#00C800"/>
<path d="M479.358 90.1292L468.305 93.063L465.77 88.6726L462.748 88.695L471.075 66.3202L470.487 84.2268L503.304 70.1024L472.575 87.8436L479.358 90.1292Z" fill="#FFCC01"/>
<path d="M291.893 85.1641L303.771 89.9424L307.191 85.4124L310.545 85.8524L304.368 59.8471L302.56 79.8244L268.037 59.6216L299.743 83.5563L291.893 85.1641Z" fill="#FFCC01"/>
<path fill-rule="evenodd" clip-rule="evenodd" d="M169.115 164.13C169.136 148.989 158.986 135.153 143.655 131.146C131.369 127.935 118.896 131.856 110.623 140.342C109.172 139.649 107.635 139.083 106.022 138.661C94.8032 135.729 83.3782 140.688 77.6265 150.096C75.5912 148.88 73.3521 147.929 70.9434 147.299C57.2258 143.714 43.1991 151.928 39.6139 165.646C38.8936 168.401 38.6496 171.17 38.8307 173.863C27.1996 176.82 17.4867 185.846 14.2373 198.279C9.47981 216.482 20.3795 235.095 38.5825 239.852C44.5855 241.421 50.633 241.288 56.2135 239.751C56.9638 240.493 57.7505 241.202 58.5718 241.875C53.9437 245.706 51.6794 251.999 53.2828 258.2C55.4928 266.748 64.2134 271.885 72.7607 269.675C75.6982 268.916 78.233 267.387 80.2052 265.361C84.0725 269.529 90.0456 271.496 95.9364 269.973C102.122 268.373 106.522 263.363 107.644 257.477C109.247 258.176 110.925 258.759 112.67 259.215C130.873 263.973 149.487 253.073 154.244 234.87C154.818 232.673 155.164 230.471 155.297 228.287C169.605 227.42 182.368 217.511 186.189 202.889C190.273 187.264 182.821 171.337 169.115 164.13Z" fill="#979797" fill-opacity="0.7"/>
<path fill-rule="evenodd" clip-rule="evenodd" d="M730.126 143.884C739.298 127.535 736.688 106.45 722.542 92.8557C711.205 81.9613 695.356 78.6622 681.287 82.8333C680.138 81.207 678.818 79.6658 677.329 78.2347C666.978 68.2879 651.636 66.7429 639.736 73.4319C638.271 70.8891 636.427 68.5081 634.204 66.3724C621.546 54.2087 601.425 54.6093 589.261 67.2671C586.817 69.8105 584.88 72.6552 583.448 75.6762C569.092 71.8441 553.142 75.7288 542.118 87.2006C525.977 103.997 526.509 130.698 543.305 146.839C548.844 152.162 555.461 155.672 562.42 157.383C562.782 158.639 563.204 159.88 563.684 161.103C556.367 162.446 550.116 167.878 548.101 175.55C545.325 186.122 551.644 196.943 562.217 199.72C565.851 200.675 569.515 200.554 572.872 199.555C574.532 206.398 579.798 212.134 587.086 214.048C594.736 216.057 602.517 213.303 607.286 207.622C608.596 209.344 610.056 210.987 611.665 212.533C628.461 228.674 655.162 228.142 671.303 211.346C673.252 209.318 674.957 207.147 676.42 204.867C692.407 212.579 712.19 209.583 725.157 196.089C739.012 181.671 740.583 159.955 730.126 143.884Z" fill="#979797" fill-opacity="0.7"/>
</svg>
