<svg width="724" height="303" viewBox="0 0 724 303" fill="none" xmlns="http://www.w3.org/2000/svg">
<path d="M299.74 209.565C310.431 248.855 287.249 289.371 247.961 300.063C208.671 310.753 168.155 287.572 157.463 248.283L299.741 209.567L299.74 209.565Z" fill="#231F20"/>
<path d="M157.461 248.282C163.876 271.854 188.186 285.764 211.759 279.35L200.143 236.667L157.459 248.283L157.461 248.282Z" fill="#6E00FF"/>
<path d="M339.783 244.482L328.171 201.797L200.118 236.631L211.73 279.316L339.783 244.482Z" fill="#231F20"/>
<path d="M348.367 158.977C311.965 186.47 260.169 179.247 232.676 142.845C205.183 106.442 212.407 54.6469 248.809 27.1539L348.367 158.977Z" fill="#231F20"/>
<path d="M248.807 27.1558C226.966 43.6518 222.631 74.7285 239.127 96.5688L278.674 66.7004L248.805 27.1541L248.807 27.1558Z" fill="#6E00FF"/>
<path d="M328.738 215.188L368.286 185.324L278.692 66.6784L239.144 96.5427L328.738 215.188Z" fill="#231F20"/>
<path d="M296.301 179.283C303.234 221.008 275.03 260.456 233.301 267.388C191.576 274.322 152.128 246.118 145.195 204.389L296.299 179.281L296.301 179.283Z" fill="#231F20"/>
<path d="M379.384 212.058C375.224 187.022 351.557 170.099 326.52 174.259L334.052 219.59L379.384 212.058Z" fill="#231F20"/>
<path d="M145.195 204.392C149.355 229.429 173.023 246.352 198.059 242.192L190.527 196.86L145.195 204.392Z" fill="#6E00FF"/>
<path d="M334.072 219.615L326.536 174.283L190.544 196.889L198.079 242.221L334.072 219.615Z" fill="#231F20"/>
<path d="M306.609 162.599C298.883 207.318 256.367 237.307 211.647 229.582C166.927 221.856 136.938 179.339 144.664 134.62L306.609 162.599Z" fill="#231F20"/>
<path d="M379.188 225.174C383.823 198.342 365.83 172.833 338.997 168.196L330.604 216.779L379.187 225.172L379.188 225.174Z" fill="#231F20"/>
<path d="M144.664 134.62C140.029 161.451 158.022 186.961 184.855 191.598L193.248 143.015L144.665 134.622L144.664 134.62Z" fill="#6E00FF"/>
<path d="M330.606 216.78L338.999 168.196L193.249 143.016L184.855 191.599L330.606 216.78Z" fill="#231F20"/>
<path d="M321.682 164.842C294.301 201.328 242.528 208.709 206.042 181.328C169.556 153.947 162.175 102.174 189.556 65.6884L321.682 164.842Z" fill="#231F20"/>
<path d="M357.999 254.058C374.428 232.166 369.999 201.101 348.107 184.672L318.361 224.311L357.999 254.058Z" fill="#231F20"/>
<path d="M189.554 65.6876C173.125 87.5795 177.554 118.644 199.445 135.073L229.192 95.4345L189.554 65.6876Z" fill="#6E00FF"/>
<path d="M318.358 224.338L348.101 184.699L229.18 95.4695L199.438 135.109L318.358 224.338Z" fill="#231F20"/>
<path d="M460.234 209.565C449.544 248.854 472.726 289.37 512.014 300.062C551.303 310.753 591.819 287.571 602.511 248.283L460.233 209.566L460.234 209.565Z" fill="#231F20"/>
<path d="M602.513 248.281C596.099 271.854 571.788 285.764 548.216 279.35L559.832 236.666L602.515 248.282L602.513 248.281Z" fill="#6E00FF"/>
<path d="M420.192 244.482L431.804 201.797L559.856 236.631L548.245 279.316L420.192 244.482Z" fill="#231F20"/>
<path d="M411.607 158.977C448.01 186.47 499.805 179.247 527.298 142.844C554.791 106.442 547.568 54.6464 511.165 27.1534L411.607 158.977Z" fill="#231F20"/>
<path d="M511.168 27.1553C533.008 43.6513 537.343 74.728 520.847 96.5683L481.301 66.6999L511.169 27.1536L511.168 27.1553Z" fill="#6E00FF"/>
<path d="M431.236 215.188L391.688 185.324L481.283 66.6784L520.831 96.5427L431.236 215.188Z" fill="#231F20"/>
<path d="M463.674 179.283C456.741 221.008 484.945 260.456 526.673 267.388C568.399 274.322 607.847 246.118 614.779 204.389L463.675 179.281L463.674 179.283Z" fill="#231F20"/>
<path d="M380.591 212.058C384.751 187.022 408.418 170.099 433.454 174.259L425.922 219.59L380.591 212.058Z" fill="#231F20"/>
<path d="M614.779 204.392C610.619 229.429 586.952 246.352 561.916 242.192L569.448 196.86L614.779 204.392Z" fill="#6E00FF"/>
<path d="M425.903 219.615L433.438 174.283L569.431 196.889L561.896 242.221L425.903 219.615Z" fill="#231F20"/>
<path d="M453.366 162.598C461.092 207.318 503.608 237.307 548.328 229.581C593.048 221.855 623.037 179.339 615.311 134.619L453.366 162.598Z" fill="#231F20"/>
<path d="M380.787 225.173C376.152 198.342 394.145 172.832 420.978 168.196L429.371 216.778L380.788 225.171L380.787 225.173Z" fill="#231F20"/>
<path d="M615.311 134.619C619.946 161.45 601.953 186.961 575.12 191.597L566.727 143.015L615.31 134.622L615.311 134.619Z" fill="#6E00FF"/>
<path d="M429.369 216.779L420.976 168.196L566.726 143.015L575.12 191.599L429.369 216.779Z" fill="#231F20"/>
<path d="M438.293 164.842C465.674 201.327 517.447 208.709 553.933 181.328C590.418 153.947 597.8 102.174 570.419 65.6879L438.293 164.842Z" fill="#231F20"/>
<path d="M401.976 254.057C385.547 232.165 389.975 201.101 411.867 184.672L441.614 224.31L401.976 254.057Z" fill="#231F20"/>
<path d="M570.421 65.6871C586.85 87.5791 582.421 118.644 560.529 135.072L530.782 95.434L570.421 65.6871Z" fill="#6E00FF"/>
<path d="M441.617 224.338L411.874 184.698L530.794 95.469L560.537 135.109L441.617 224.338Z" fill="#231F20"/>
<path d="M462.851 148.382H283.851V239.382H462.851V148.382Z" fill="#2D2D2D"/>
<path d="M442.851 188.382H303.851C292.805 188.382 283.851 197.336 283.851 208.382V239.382C283.851 250.428 292.805 259.382 303.851 259.382H442.851C453.897 259.382 462.851 250.428 462.851 239.382V208.382C462.851 197.336 453.897 188.382 442.851 188.382Z" fill="#2D2D2D"/>
<path d="M373.351 239.382C422.781 239.382 462.851 199.312 462.851 149.882C462.851 100.453 422.781 60.3821 373.351 60.3821C323.922 60.3821 283.851 100.453 283.851 149.882C283.851 199.312 323.922 239.382 373.351 239.382Z" fill="#2D2D2D"/>
<path d="M336.216 141.216C349.963 141.216 361.108 130.071 361.108 116.324C361.108 102.576 349.963 91.4315 336.216 91.4315C322.468 91.4315 311.324 102.576 311.324 116.324C311.324 130.071 322.468 141.216 336.216 141.216Z" fill="white"/>
<path d="M412.009 141.216C425.756 141.216 436.901 130.071 436.901 116.324C436.901 102.576 425.756 91.4315 412.009 91.4315C398.261 91.4315 387.117 102.576 387.117 116.324C387.117 130.071 398.261 141.216 412.009 141.216Z" fill="white"/>
<path d="M336.216 119.183C339.472 119.183 342.112 116.543 342.112 113.287C342.112 110.03 339.472 107.39 336.216 107.39C332.96 107.39 330.32 110.03 330.32 113.287C330.32 116.543 332.96 119.183 336.216 119.183Z" fill="#231F20"/>
<path d="M410.972 128.777C414.228 128.777 416.868 126.137 416.868 122.881C416.868 119.625 414.228 116.985 410.972 116.985C407.716 116.985 405.076 119.625 405.076 122.881C405.076 126.137 407.716 128.777 410.972 128.777Z" fill="#231F20"/>
<path fill-rule="evenodd" clip-rule="evenodd" d="M401.408 55.5286C408.645 53.3398 416.655 53.5465 424.184 56.6678C431.705 59.7858 437.508 65.2987 441.074 71.9563C441.172 62.7944 435.783 54.0634 426.801 50.3396C417.813 46.6136 407.82 48.9758 401.408 55.5286Z" fill="#BDBDBD"/>
<path fill-rule="evenodd" clip-rule="evenodd" d="M345.702 53.8491C338.208 52.0943 330.078 52.8686 322.675 56.6182C315.861 60.0692 310.714 65.5075 307.584 71.8712C307.439 63.2928 312.094 54.9706 320.262 50.8338C328.828 46.4955 338.819 47.9956 345.702 53.8491Z" fill="#BDBDBD"/>
<path d="M370.451 165.03C351.329 165.03 335.826 172.737 335.826 182.245L370.453 214.268V165.03H370.451Z" fill="#635F5F"/>
<path d="M405.074 182.245H405.073C405.073 172.737 389.572 165.03 370.449 165.03V214.268L405.076 182.245H405.074Z" fill="#635F5F"/>
<mask id="mask0_94_765" style="mask-type:alpha" maskUnits="userSpaceOnUse" x="335" y="116" width="73" height="36">
<path d="M335.888 151.484H407.087V116.324H335.888V151.484Z" fill="#635F5F"/>
</mask>
<g mask="url(#mask0_94_765)">
<path d="M370.453 168.333C351.331 168.333 335.828 160.625 335.828 151.118L370.455 119.094V168.333H370.453Z" fill="#635F5F"/>
<path d="M405.076 151.118H405.075C405.075 160.625 389.573 168.333 370.451 168.333V119.094L405.078 151.118H405.076Z" fill="#635F5F"/>
</g>
<rect x="328.275" y="147.702" width="86.4238" height="37.6765" rx="18.8383" fill="#484545"/>
<mask id="mask1_94_765" style="mask-type:alpha" maskUnits="userSpaceOnUse" x="328" y="147" width="87" height="39">
<rect x="328.117" y="147.702" width="86.4238" height="37.6765" rx="18.8383" fill="#B3B3B3"/>
</mask>
<g mask="url(#mask1_94_765)">
<ellipse cx="371.172" cy="184.137" rx="19.2524" ry="8.26721" fill="#353131"/>
</g>
<path d="M358.965 124.565C358.965 138.312 347.821 149.457 334.073 149.457C320.326 149.457 309.181 138.312 309.181 124.565C309.181 110.817 320.326 99.6727 334.073 99.6727C347.821 99.6727 358.965 110.817 358.965 124.565Z" fill="#D4D4D4" fill-opacity="0.25"/>
<path d="M431.979 110.176C431.979 123.924 420.834 135.068 407.087 135.068C393.339 135.068 382.195 123.924 382.195 110.176C382.195 96.4285 393.339 85.284 407.087 85.284C420.834 85.284 431.979 96.4285 431.979 110.176Z" fill="#D4D4D4" fill-opacity="0.25"/>
<path d="M438.431 92.5938L431.68 93.8276C431.68 93.8276 431.434 93.8727 431.335 93.8907C425.198 85.1075 414.312 80.1534 403.126 82.1978C388.541 84.8637 378.644 98.4156 380.178 112.941C378.44 112.902 361.317 116.082 359.714 116.784C356.091 102.537 341.982 93.3223 327.348 95.9971C316.162 98.0415 307.723 106.476 305.089 116.863L289.96 119.628C288.58 119.88 287.655 121.224 287.907 122.607C288.16 123.99 289.501 124.92 290.881 124.667L304.286 122.217C304.172 124.383 304.323 126.601 304.73 128.825C307.529 144.141 322.222 154.321 337.497 151.529C351.59 148.953 361.327 136.197 360.559 122.246C362.014 121.01 379.423 117.726 381.234 118.16C385.379 131.647 399.076 140.274 413.267 137.681C428.542 134.889 438.684 120.169 435.885 104.853C435.479 102.63 434.835 100.501 433.963 98.5161L448.008 95.949C449.388 95.6968 450.313 94.3533 450.061 92.9699C449.808 91.5865 448.467 90.6573 447.087 90.9095L438.431 92.5938ZM336.603 146.638C324.087 148.926 312.076 140.603 309.783 128.054C307.489 115.505 315.78 103.472 328.296 101.185C340.812 98.8971 352.822 107.219 355.116 119.769C357.41 132.318 349.119 144.351 336.603 146.638ZM412.324 132.799C399.808 135.086 387.797 126.764 385.503 114.215C383.21 101.666 391.5 89.6327 404.016 87.3451C416.532 85.0575 428.543 93.3798 430.837 105.929C433.13 118.478 424.84 130.511 412.324 132.799Z" fill="#00C800"/>
<path d="M466.236 48.1292L455.183 51.0629L452.648 46.6725L449.626 46.6949L457.953 24.3201L457.366 42.2267L490.182 28.1024L459.454 45.8436L466.236 48.1292Z" fill="#FFCC01"/>
<path d="M278.771 43.164L290.649 47.9424L294.069 43.4123L297.424 43.8523L291.246 17.847L289.438 37.8243L254.915 17.6216L286.621 41.5562L278.771 43.164Z" fill="#FFCC01"/>
<path d="M155.993 122.13C156.015 106.988 145.864 93.1529 130.533 89.1459C118.247 85.9349 105.774 89.8564 97.5009 98.3418C96.0501 97.6487 94.5129 97.0827 92.8996 96.661C81.6813 93.729 70.2563 98.6883 64.5046 108.096C62.4693 106.88 60.2302 105.929 57.8215 105.299C44.1039 101.714 30.0772 109.928 26.492 123.645C25.7717 126.401 25.5277 129.17 25.7088 131.863C14.0777 134.82 4.36481 143.846 1.11543 156.279C-3.64209 174.482 7.25761 193.095 25.4606 197.852C31.4636 199.421 37.5111 199.287 43.0916 197.75C43.842 198.493 44.6286 199.202 45.4499 199.875C40.8218 203.706 38.5575 209.999 40.1609 216.2C42.3709 224.748 51.0915 229.885 59.6388 227.675C62.5763 226.916 65.1111 225.387 67.0833 223.361C70.9506 227.529 76.9237 229.496 82.8146 227.972C89.0006 226.373 93.4005 221.363 94.5216 215.477C96.1252 216.176 97.8033 216.759 99.5485 217.215C117.751 221.973 136.365 211.073 141.122 192.87C141.696 190.673 142.042 188.471 142.175 186.287C156.484 185.42 169.246 175.511 173.067 160.889C177.151 145.264 169.699 129.337 155.993 122.13Z" fill="#979797" fill-opacity="0.7"/>
<path d="M717.004 101.884C726.175 85.5348 723.566 64.4499 709.42 50.8557C698.083 39.9613 682.234 36.6622 668.165 40.8333C667.016 39.207 665.696 37.6658 664.207 36.2347C653.856 26.2879 638.514 24.7429 626.614 31.4319C625.149 28.889 623.304 26.5081 621.082 24.3724C608.424 12.2087 588.303 12.6093 576.139 25.2671C573.695 27.8105 571.758 30.6552 570.326 33.6762C555.97 29.8441 540.02 33.7288 528.996 45.2006C512.855 61.9972 513.386 88.6984 530.183 104.839C535.722 110.162 542.339 113.672 549.298 115.383C549.66 116.638 550.082 117.88 550.562 119.103C543.245 120.446 536.994 125.878 534.979 133.55C532.203 144.122 538.522 154.943 549.095 157.72C552.729 158.675 556.393 158.554 559.749 157.555C561.41 164.398 566.676 170.134 573.964 172.048C581.614 174.057 589.395 171.303 594.164 165.621C595.474 167.343 596.933 168.987 598.542 170.533C615.339 186.674 642.04 186.142 658.181 169.346C660.129 167.318 661.835 165.147 663.298 162.867C679.285 170.579 699.068 167.583 712.035 154.089C725.89 139.671 727.46 117.955 717.004 101.884Z" fill="#979797" fill-opacity="0.7"/>
</svg>
