<svg width="727" height="304" viewBox="0 0 727 304" fill="none" xmlns="http://www.w3.org/2000/svg">
<path d="M465.087 132H286.087V223H465.087V132Z" fill="#2D2D2D"/>
<path d="M445.087 172H306.087C295.041 172 286.087 180.954 286.087 192V223C286.087 234.046 295.041 243 306.087 243H445.087C456.133 243 465.087 234.046 465.087 223V192C465.087 180.954 456.133 172 445.087 172Z" fill="#2D2D2D"/>
<path d="M375.587 223C425.016 223 465.087 182.929 465.087 133.5C465.087 84.0705 425.016 44 375.587 44C326.157 44 286.087 84.0705 286.087 133.5C286.087 182.929 326.157 223 375.587 223Z" fill="#2D2D2D"/>
<path d="M376.339 118.078C354.652 118.078 337.071 134.306 337.071 154.324L376.34 221.75V118.078H376.339Z" fill="#C7EAFB"/>
<path d="M415.604 154.324H415.603C415.603 134.306 398.023 118.078 376.337 118.078V221.75L415.606 154.324H415.604Z" fill="#6E00FF"/>
<path d="M639.296 254.021C664.149 254.021 684.296 233.873 684.296 209.021C684.296 184.168 664.149 164.021 639.296 164.021C614.443 164.021 594.296 184.168 594.296 209.021C594.296 233.873 614.443 254.021 639.296 254.021Z" fill="#00C800"/>
<path d="M94.8779 163C110.342 163 122.878 150.464 122.878 135C122.878 119.536 110.342 107 94.8779 107C79.414 107 66.8779 119.536 66.8779 135C66.8779 150.464 79.414 163 94.8779 163Z" fill="#00C800"/>
<rect x="385.769" y="72.6144" width="55.0795" height="5.46365" rx="2.73182" transform="rotate(-17 385.769 72.6144)" fill="#D4D4D4"/>
<rect width="55.0794" height="5.46365" rx="2.73182" transform="matrix(-0.956305 -0.292372 -0.292372 0.956305 364.206 79.8585)" fill="#D4D4D4"/>
<path d="M362.407 102.712C362.407 99.462 361.767 96.2436 360.523 93.2408C359.279 90.238 357.456 87.5097 355.158 85.2114C352.859 82.9132 350.131 81.0902 347.128 79.8464C344.125 78.6026 340.907 77.9624 337.657 77.9624C334.407 77.9624 331.188 78.6026 328.186 79.8464C325.183 81.0902 322.454 82.9132 320.156 85.2114C317.858 87.5097 316.035 90.238 314.791 93.2408C313.547 96.2436 312.907 99.462 312.907 102.712L337.657 102.712H362.407Z" fill="white"/>
<path d="M344.298 102.712C344.298 100.889 343.939 99.0834 343.241 97.3989C342.544 95.7145 341.521 94.1839 340.232 92.8947C338.942 91.6054 337.412 90.5827 335.727 89.885C334.043 89.1872 332.238 88.8281 330.414 88.8281C328.591 88.8281 326.786 89.1872 325.101 89.885C323.417 90.5827 321.886 91.6054 320.597 92.8947C319.308 94.1839 318.285 95.7145 317.587 97.3989C316.889 99.0834 316.53 100.889 316.53 102.712L330.414 102.712H344.298Z" fill="#231F20"/>
<path d="M363.939 104.082C363.939 118.508 352.245 130.202 337.82 130.202C323.394 130.202 311.7 118.508 311.7 104.082C311.7 89.6566 323.394 77.9624 337.82 77.9624C352.245 77.9624 363.939 89.6566 363.939 104.082Z" fill="#D4D4D4" fill-opacity="0.25"/>
<path d="M440.088 105.712C440.088 102.462 439.448 99.2436 438.204 96.2408C436.961 93.238 435.138 90.5097 432.839 88.2114C430.541 85.9132 427.813 84.0902 424.81 82.8464C421.807 81.6026 418.589 80.9624 415.339 80.9624C412.088 80.9624 408.87 81.6026 405.867 82.8464C402.865 84.0902 400.136 85.9132 397.838 88.2114C395.54 90.5097 393.717 93.238 392.473 96.2408C391.229 99.2436 390.589 102.462 390.589 105.712L415.339 105.712H440.088Z" fill="white"/>
<path d="M423.187 105.712C423.187 103.889 422.828 102.083 422.13 100.399C421.432 98.7145 420.41 97.1839 419.12 95.8947C417.831 94.6054 416.301 93.5827 414.616 92.885C412.932 92.1872 411.126 91.8281 409.303 91.8281C407.48 91.8281 405.674 92.1872 403.99 92.885C402.305 93.5827 400.775 94.6054 399.485 95.8947C398.196 97.1839 397.174 98.7145 396.476 100.399C395.778 102.083 395.419 103.889 395.419 105.712L409.303 105.712H423.187Z" fill="#231F20"/>
<ellipse cx="416.709" cy="104.668" rx="26.1196" ry="26.1197" fill="#D4D4D4" fill-opacity="0.25"/>
<path d="M447.388 93.6721H440.525C440.525 93.6721 440.275 93.6721 440.174 93.6721C435.716 83.9286 425.898 77.098 414.527 77.098C399.7 77.098 387.528 88.6496 386.426 103.215C384.723 102.863 367.307 102.913 365.604 103.315C364.602 88.6496 352.38 77.0479 337.503 77.0479C326.132 77.0479 316.314 83.828 311.856 93.5715H296.476C295.073 93.5715 293.921 94.7268 293.921 96.133C293.921 97.5393 295.073 98.6945 296.476 98.6945H310.102C309.601 100.804 309.351 103.014 309.351 105.274C309.351 120.843 321.974 133.5 337.503 133.5C351.829 133.5 363.701 122.702 365.454 108.84C367.107 107.886 384.823 107.785 386.526 108.538C388.179 122.551 400.101 133.5 414.527 133.5C430.056 133.5 442.679 120.843 442.679 105.274C442.679 103.014 442.428 100.804 441.927 98.6945H456.205C457.608 98.6945 458.76 97.5393 458.76 96.133C458.76 94.7268 457.608 93.5715 456.205 93.5715L447.388 93.6721ZM337.503 128.528C324.779 128.528 314.46 118.182 314.46 105.425C314.46 92.6676 324.779 82.3213 337.503 82.3213C350.226 82.3213 360.545 92.6676 360.545 105.425C360.545 118.182 350.226 128.528 337.503 128.528ZM414.477 128.528C401.754 128.528 391.435 118.182 391.435 105.425C391.435 92.6676 401.754 82.3213 414.477 82.3213C427.201 82.3213 437.52 92.6676 437.52 105.425C437.52 118.182 427.201 128.528 414.477 128.528Z" fill="#00C800"/>
<path d="M363.402 105.063C363.402 118.811 352.258 129.955 338.51 129.955C324.763 129.955 313.618 118.811 313.618 105.063C313.618 91.3156 324.763 80.171 338.51 80.171C352.258 80.171 363.402 91.3156 363.402 105.063Z" fill="#D4D4D4" fill-opacity="0.25"/>
<ellipse cx="414.7" cy="104.618" rx="24.4474" ry="24.4474" fill="#D4D4D4" fill-opacity="0.25"/>
<path fill-rule="evenodd" clip-rule="evenodd" d="M197.244 233.984C199.47 228.492 197.814 221.983 192.837 218.281C188.849 215.315 183.747 214.91 179.5 216.778C179.075 216.313 178.6 215.882 178.076 215.492C174.434 212.784 169.561 212.909 166.095 215.48C165.535 214.741 164.862 214.067 164.08 213.486C159.627 210.174 153.332 211.1 150.02 215.553C149.355 216.448 148.86 217.417 148.531 218.421C143.877 217.79 139.029 219.642 136.028 223.678C131.633 229.587 132.861 237.94 138.77 242.335C140.719 243.784 142.934 244.622 145.184 244.882C145.348 245.261 145.529 245.634 145.729 245.998C143.487 246.71 141.742 248.662 141.415 251.148C140.965 254.574 143.377 257.717 146.803 258.167C147.981 258.322 149.125 258.139 150.138 257.692C150.931 259.772 152.81 261.362 155.172 261.673C157.651 261.999 159.982 260.826 161.251 258.855C161.731 259.343 162.254 259.8 162.819 260.221C168.729 264.616 177.082 263.388 181.476 257.479C182.007 256.765 182.455 256.016 182.824 255.243C188.144 257.026 194.229 255.3 197.759 250.553C201.532 245.481 201.161 238.608 197.244 233.984Z" fill="#979797" fill-opacity="0.7"/>
</svg>
