<svg width="695" height="299" viewBox="0 0 695 299" fill="none" xmlns="http://www.w3.org/2000/svg">
<path d="M360.286 220.321L318.812 260.266L198.978 135.842L240.452 95.8979L360.286 220.321Z" fill="#231F20"/>
<path d="M352.873 219.074L394.347 259.019L514.181 134.595L472.708 94.6508L352.873 219.074Z" fill="#231F20"/>
<path d="M455.226 159.682H276.226V250.682H455.226V159.682Z" fill="#2D2D2D"/>
<path d="M435.226 199.682H296.226C285.181 199.682 276.226 208.636 276.226 219.682V250.682C276.226 261.727 285.18 270.682 296.226 270.682H435.226C446.272 270.682 455.226 261.727 455.226 250.682V219.682C455.226 208.636 446.272 199.682 435.226 199.682Z" fill="#2D2D2D"/>
<path d="M365.726 250.682C415.156 250.682 455.226 210.611 455.226 161.182C455.226 111.752 415.156 71.6816 365.726 71.6816C316.297 71.6816 276.226 111.752 276.226 161.182C276.226 210.611 316.297 250.682 365.726 250.682Z" fill="#2D2D2D"/>
<path d="M328.591 152.515C342.338 152.515 353.483 141.371 353.483 127.623C353.483 113.876 342.338 102.731 328.591 102.731C314.843 102.731 303.699 113.876 303.699 127.623C303.699 141.371 314.843 152.515 328.591 152.515Z" fill="white"/>
<path d="M328.592 135.09C332.716 135.09 336.059 131.747 336.059 127.623C336.059 123.499 332.716 120.156 328.592 120.156C324.468 120.156 321.125 123.499 321.125 127.623C321.125 131.747 324.468 135.09 328.592 135.09Z" fill="#231F20"/>
<path d="M404.384 152.515C418.131 152.515 429.276 141.371 429.276 127.623C429.276 113.876 418.131 102.731 404.384 102.731C390.636 102.731 379.492 113.876 379.492 127.623C379.492 141.371 390.636 152.515 404.384 152.515Z" fill="white"/>
<path d="M403.664 135.09C407.788 135.09 411.131 131.747 411.131 127.623C411.131 123.499 407.788 120.156 403.664 120.156C399.54 120.156 396.197 123.499 396.197 127.623C396.197 131.747 399.54 135.09 403.664 135.09Z" fill="#231F20"/>
<path d="M341.045 171.205C335.759 192.237 347.213 213.243 366.627 218.122L441.591 196.471L341.045 171.203L341.045 171.205Z" fill="#C7EAFB"/>
<path d="M362.778 145.104L362.779 145.105C343.903 151.769 334.453 173.749 341.673 194.198L439.431 159.683L362.778 145.102L362.778 145.104Z" fill="#6E00FF"/>
<rect x="394.798" y="81.3437" width="55.0795" height="5.46365" rx="2.73182" transform="rotate(37.7566 394.798 81.3437)" fill="#D4D4D4"/>
<rect width="55.0794" height="5.46365" rx="2.73182" transform="matrix(-0.790619 0.612308 0.612308 0.790619 335.697 83.6507)" fill="#D4D4D4"/>
<path d="M434.838 60.0644C448.511 45.8695 471.101 45.4464 485.296 59.1179L460.54 84.8198L434.838 60.0644Z" fill="#6E00FF"/>
<path d="M449.749 74.5502C464.081 60.1269 487.39 60.0528 501.813 74.3831L475.865 100.499L449.749 74.5502Z" fill="#231F20"/>
<path d="M470.292 94.9658C483.965 80.7709 506.554 80.3478 520.749 94.0193L495.994 119.721L470.292 94.9658Z" fill="#6E00FF"/>
<path d="M278.319 61.3115C264.646 47.1166 242.056 46.6935 227.862 60.365L252.617 86.0669L278.319 61.3115Z" fill="#6E00FF"/>
<path d="M263.41 75.7972C249.078 61.374 225.769 61.2998 211.346 75.6302L237.295 101.746L263.41 75.7972Z" fill="#231F20"/>
<path d="M242.868 96.2128C229.195 82.018 206.605 81.5948 192.41 95.2664L217.166 120.968L242.868 96.2128Z" fill="#6E00FF"/>
<path d="M328.177 152.601C341.924 152.601 353.069 141.456 353.069 127.709C353.069 113.961 341.924 102.817 328.177 102.817C314.429 102.817 303.285 113.961 303.285 127.709C303.285 141.456 314.429 152.601 328.177 152.601Z" fill="white"/>
<path d="M328.176 135.81C332.499 135.81 336.003 132.306 336.003 127.983C336.003 123.661 332.499 120.156 328.176 120.156C323.854 120.156 320.349 123.661 320.349 127.983C320.349 132.306 323.854 135.81 328.176 135.81Z" fill="#231F20"/>
<path d="M435.689 88.1555H428.826C428.826 88.1555 428.576 88.1555 428.476 88.1555C424.018 78.412 414.2 71.5814 402.829 71.5814C388.002 71.5814 375.829 83.133 374.727 97.6981C373.024 97.3465 355.608 97.3967 353.905 97.7985C352.904 83.133 340.681 71.5312 325.804 71.5312C314.433 71.5312 304.615 78.3114 300.157 88.0549H284.777C283.374 88.0549 282.222 89.2101 282.222 90.6164C282.222 92.0227 283.374 93.1779 284.777 93.1779H298.404C297.903 95.2873 297.652 97.4972 297.652 99.7573C297.652 115.327 310.275 127.983 325.804 127.983C340.13 127.983 352.002 117.185 353.755 103.323C355.408 102.369 373.124 102.268 374.827 103.022C376.48 117.034 388.402 127.983 402.829 127.983C418.357 127.983 430.98 115.327 430.98 99.7573C430.98 97.4972 430.73 95.2873 430.229 93.1779H444.507C445.909 93.1779 447.062 92.0227 447.062 90.6164C447.062 89.2101 445.909 88.0549 444.507 88.0549L435.689 88.1555ZM325.804 123.011C313.081 123.011 302.762 112.665 302.762 99.9079C302.762 87.151 313.081 76.8047 325.804 76.8047C338.527 76.8047 348.846 87.151 348.846 99.9079C348.846 112.665 338.527 123.011 325.804 123.011ZM402.779 123.011C390.055 123.011 379.737 112.665 379.737 99.9079C379.737 87.151 390.055 76.8047 402.779 76.8047C415.502 76.8047 425.821 87.151 425.821 99.9079C425.821 112.665 415.502 123.011 402.779 123.011Z" fill="#00C800"/>
<path d="M351.704 99.5464C351.704 113.294 340.559 124.438 326.812 124.438C313.064 124.438 301.92 113.294 301.92 99.5464C301.92 85.7989 313.064 74.6544 326.812 74.6544C340.559 74.6544 351.704 85.7989 351.704 99.5464Z" fill="#D4D4D4" fill-opacity="0.25"/>
<ellipse cx="403.002" cy="99.1017" rx="24.4474" ry="24.4474" fill="#D4D4D4" fill-opacity="0.25"/>
<path d="M213.047 122.023C233.19 143.297 266.766 144.215 288.041 124.073C309.315 103.93 310.232 70.3544 290.091 49.0793L213.048 122.022L213.047 122.023Z" fill="#231F20"/>
<path d="M500.11 120.776C479.967 142.05 446.392 142.968 425.117 122.826C403.842 102.683 402.925 69.1073 423.067 47.8323L500.109 120.775L500.11 120.776Z" fill="#231F20"/>
<path fill-rule="evenodd" clip-rule="evenodd" d="M568.639 138.008C573.017 127.211 569.761 114.415 559.976 107.139C552.135 101.307 542.105 100.511 533.757 104.182C532.921 103.27 531.987 102.422 530.957 101.656C523.798 96.3324 514.218 96.5784 507.404 101.632C506.302 100.179 504.979 98.8551 503.442 97.7121C494.687 91.2013 482.312 93.0204 475.801 101.775C474.493 103.534 473.521 105.439 472.874 107.414C463.723 106.173 454.193 109.814 448.292 117.748C439.652 129.366 442.066 145.787 453.683 154.427C457.515 157.276 461.869 158.923 466.293 159.435C466.615 160.18 466.971 160.912 467.363 161.629C462.955 163.028 459.525 166.866 458.882 171.754C457.996 178.49 462.738 184.668 469.473 185.554C471.79 185.859 474.04 185.498 476.032 184.619C477.59 188.709 481.285 191.835 485.929 192.445C490.802 193.086 495.384 190.781 497.88 186.906C498.822 187.865 499.85 188.763 500.963 189.591C512.58 198.23 529.002 195.816 537.641 184.199C538.684 182.797 539.566 181.325 540.29 179.804C550.75 183.311 562.714 179.918 569.655 170.585C577.071 160.612 576.343 147.1 568.639 138.008Z" fill="#979797" fill-opacity="0.7"/>
<path fill-rule="evenodd" clip-rule="evenodd" d="M251.684 114.717C256.062 103.92 252.805 91.1235 243.021 83.8471C235.18 78.0157 225.15 77.2199 216.802 80.8909C215.966 79.9781 215.032 79.1309 214.002 78.3649C206.843 73.0409 197.263 73.2869 190.449 78.3406C189.347 76.8874 188.023 75.5636 186.486 74.4206C177.732 67.9098 165.357 69.7289 158.846 78.4837C157.538 80.2427 156.566 82.1479 155.919 84.1223C146.768 82.8812 137.237 86.5226 131.337 94.457C122.697 106.074 125.111 122.496 136.728 131.136C140.56 133.985 144.913 135.632 149.338 136.143C149.66 136.889 150.016 137.621 150.408 138.337C146 139.737 142.57 143.575 141.927 148.463C141.041 155.198 145.783 161.377 152.518 162.263C154.835 162.567 157.085 162.206 159.077 161.328C160.635 165.417 164.33 168.543 168.973 169.154C173.847 169.795 178.429 167.489 180.925 163.614C181.867 164.573 182.895 165.472 184.008 166.299C195.625 174.939 212.047 172.525 220.686 160.908C221.729 159.505 222.611 158.033 223.335 156.513C233.795 160.02 245.759 156.627 252.7 147.293C260.116 137.321 259.388 123.808 251.684 114.717Z" fill="#979797" fill-opacity="0.7"/>
<path d="M515.086 62C532.206 62 546.086 48.1208 546.086 31C546.086 13.8792 532.206 0 515.086 0C497.965 0 484.086 13.8792 484.086 31C484.086 48.1208 497.965 62 515.086 62Z" fill="#00C800"/>
<path d="M623.75 163.382C648.602 163.382 668.75 143.235 668.75 118.382C668.75 93.5295 648.602 73.3823 623.75 73.3823C598.897 73.3823 578.75 93.5295 578.75 118.382C578.75 143.235 598.897 163.382 623.75 163.382Z" fill="#00C800"/>
<path d="M83.2222 90.1455C98.6862 90.1455 111.222 77.6095 111.222 62.1455C111.222 46.6815 98.6862 34.1455 83.2222 34.1455C67.7583 34.1455 55.2222 46.6815 55.2222 62.1455C55.2222 77.6095 67.7583 90.1455 83.2222 90.1455Z" fill="#00C800"/>
<path fill-rule="evenodd" clip-rule="evenodd" d="M74.3671 154.369C76.594 148.877 74.9379 142.367 69.9609 138.666C65.9723 135.7 60.8704 135.295 56.6239 137.162C56.1987 136.698 55.7235 136.267 55.1994 135.877C51.5579 133.169 46.6849 133.294 43.2187 135.865C42.6582 135.126 41.9851 134.452 41.2033 133.871C36.7502 130.559 30.4555 131.484 27.1438 135.938C26.4783 136.832 25.9839 137.801 25.6549 138.806C21.0004 138.175 16.1529 140.027 13.1516 144.063C8.75702 149.972 9.98486 158.325 15.8941 162.719C17.8428 164.169 20.0573 165.006 22.3079 165.267C22.4714 165.646 22.6528 166.018 22.8521 166.383C20.6105 167.095 18.866 169.047 18.539 171.533C18.0884 174.959 20.5004 178.102 23.9264 178.552C25.1043 178.707 26.2486 178.524 27.2616 178.077C28.0541 180.157 29.9339 181.747 32.2956 182.058C34.7746 182.384 37.1052 181.211 38.375 179.24C38.8542 179.728 39.3772 180.185 39.9431 180.606C45.8523 185 54.2052 183.773 58.5998 177.863C59.1303 177.15 59.5788 176.401 59.9471 175.628C65.2675 177.411 71.3526 175.685 74.883 170.938C78.6552 165.866 78.2848 158.993 74.3671 154.369Z" fill="#979797" fill-opacity="0.7"/>
<path fill-rule="evenodd" clip-rule="evenodd" d="M680.164 70.6197C682.391 65.1275 680.735 58.6183 675.758 54.917C671.769 51.9507 666.667 51.546 662.421 53.4135C661.996 52.9489 661.52 52.5179 660.996 52.1281C657.355 49.42 652.482 49.5452 649.016 52.1158C648.455 51.3766 647.782 50.7032 647 50.1218C642.547 46.8101 636.252 47.7353 632.941 52.1885C632.275 53.0833 631.781 54.0524 631.452 55.0568C626.797 54.4257 621.95 56.2779 618.949 60.3136C614.554 66.2229 615.782 74.5758 621.691 78.9704C623.64 80.4196 625.854 81.2574 628.105 81.5175C628.268 81.8967 628.45 82.2693 628.649 82.6338C626.407 83.3457 624.663 85.2978 624.336 87.7838C623.885 91.2099 626.297 94.3526 629.723 94.8032C630.901 94.9582 632.046 94.7747 633.059 94.3281C633.851 96.4081 635.731 97.9979 638.093 98.3086C640.571 98.6347 642.902 97.462 644.172 95.4909C644.651 95.9787 645.174 96.4359 645.74 96.8567C651.649 101.251 660.002 100.024 664.397 94.1143C664.927 93.401 665.376 92.6521 665.744 91.8789C671.064 93.6621 677.15 91.9362 680.68 87.189C684.452 82.1168 684.082 75.2441 680.164 70.6197Z" fill="#979797" fill-opacity="0.7"/>
<path fill-rule="evenodd" clip-rule="evenodd" d="M606.447 251.641C608.674 246.148 607.018 239.639 602.041 235.938C598.052 232.972 592.951 232.567 588.704 234.434C588.279 233.97 587.804 233.539 587.28 233.149C583.638 230.441 578.765 230.566 575.299 233.137C574.738 232.398 574.065 231.724 573.283 231.143C568.83 227.831 562.536 228.756 559.224 233.209C558.558 234.104 558.064 235.073 557.735 236.078C553.081 235.447 548.233 237.299 545.232 241.335C540.837 247.244 542.065 255.597 547.974 259.991C549.923 261.441 552.137 262.278 554.388 262.539C554.552 262.918 554.733 263.29 554.932 263.655C552.691 264.367 550.946 266.319 550.619 268.805C550.169 272.231 552.581 275.374 556.007 275.824C557.184 275.979 558.329 275.796 559.342 275.349C560.134 277.429 562.014 279.019 564.376 279.33C566.855 279.656 569.185 278.483 570.455 276.512C570.934 277 571.457 277.457 572.023 277.878C577.932 282.272 586.285 281.045 590.68 275.135C591.21 274.422 591.659 273.673 592.027 272.9C597.348 274.683 603.433 272.957 606.963 268.21C610.735 263.138 610.365 256.265 606.447 251.641Z" fill="#979797" fill-opacity="0.7"/>
</svg>
